<svg width="23" height="15" viewBox="0 0 23 15" fill="none" xmlns="http://www.w3.org/2000/svg"><title>arrow</title><path d="M18.2573 1.69336C18.3648 1.91322 17.7949 1.98369 18.0551 2.1543C18.3025 1.58813 19.1504 2.61034 18.9545 2.61426C18.9993 2.79673 19.5238 2.44509 19.5834 2.49023C19.6168 2.50905 19.2336 3.30011 19.4194 3.18848C19.4946 3.11324 19.5044 2.86138 19.7094 2.87598C19.8467 2.8483 19.5148 3.28805 19.6372 3.2627C19.7052 3.24801 20.1137 2.91736 20.1274 2.95703C20.3053 3.50199 20.9611 2.96441 21.4477 4.47656C21.7667 4.47656 22.8661 6.36993 22.7446 6.83105C22.3657 7.20995 22.3867 7.41391 22.5668 7.75488C22.6561 7.75488 22.8741 8.13981 22.8159 8.17773C22.9504 8.33336 21.8975 9.29623 21.728 9.4375C21.6181 9.54506 21.9132 9.85436 21.7954 9.95312C21.4197 10.2689 21.0465 10.5819 20.6743 10.9004C18.0058 12.9237 17.2815 13.9924 16.3999 14.1406C16.1612 13.3542 16.7973 11.8051 15.9809 11.7109C16.0321 11.2869 16.8055 12.2432 16.7231 11.9717C16.65 11.7478 17.3606 11.1402 17.2348 11.5078C17.5608 11.5945 16.9688 10.3075 17.2485 10.4961C17.6791 10.7845 17.7824 10.0614 17.9204 10.4824C18.139 10.2638 17.4845 10.256 17.645 10.0439C17.6671 10.0047 18.4436 10.1165 18.4174 9.99023C18.4027 9.92216 18.0721 9.51373 18.1118 9.5C18.4174 9.40021 18.795 10.1776 18.9819 9.91602C18.9068 9.91602 18.3176 9.27287 18.3842 9.26953C18.6552 9.75053 19.1058 8.34883 19.6313 8.17969C19.6313 8.15408 19.9254 8.0203 19.8862 7.91602C18.9749 7.91602 16.6603 8.24567 17.3061 8.60547C16.7554 8.79567 16.4343 7.92427 16.7338 7.96289C16.2526 8.00794 15.4209 8.4662 15.2309 7.73535C14.6225 7.66511 15.3045 8.15179 15.1958 8.34668C15.0363 8.4224 14.4438 7.86909 13.9887 7.86035C13.636 7.88248 13.3651 8.63776 13.3344 8.56738C12.9785 7.77664 12.7239 8.75866 12.2934 8.56445C12.0693 8.5076 12.4091 8.31395 12.3393 8.21484C12.3097 8.2653 11.8837 8.51487 11.4565 8.10449C11.9533 8.0415 10.5354 8.52401 10.0424 8.6123C9.87509 8.65843 10.3281 8.21467 10.1879 8.1123C10.1879 8.10868 10.1944 8.11499 10.1879 8.1123C9.98222 8.06638 9.77676 7.75455 9.65278 7.75098C9.80251 7.67754 9.33538 8.1664 9.49165 8.22461C9.62214 8.22461 9.9121 8.77405 9.55513 8.63184C9.94344 8.02047 7.38325 7.84508 7.38325 8.56934C7.21565 8.37518 -0.382697 9.12407 0.0150879 6.80957C0.262725 5.32759 4.47407 4.64591 4.47407 6.14844C4.82176 6.14996 4.84444 5.72296 5.19087 5.73633C6.29471 5.77859 7.39682 5.8214 8.50044 5.85937C8.50304 5.86067 8.49933 5.86421 8.50044 5.85937C15.8312 6.30485 17.6283 6.56754 19.5942 6.54492C19.3051 6.20122 19.0186 5.86036 18.727 5.51953C18.5222 5.24942 16.8306 2.90301 16.9272 2.86523C16.8618 2.85757 15.5606 1.68411 15.4868 1.24512C16.4174 0.962763 17.5999 0.368474 18.2573 1.69336ZM15.5502 13.9209C15.482 13.9103 15.414 14.0363 15.5502 13.9209ZM15.6547 13.7598C15.6949 13.7378 15.6845 13.7638 15.6547 13.7598ZM16.9184 13.6455C16.8691 13.5853 16.9578 13.695 16.9184 13.6455ZM15.8364 13.5215C15.929 13.5897 15.9628 13.6929 15.8364 13.5215ZM16.603 13.6123C16.6232 13.6042 16.6044 13.6252 16.603 13.6123ZM15.6059 13.5957C15.5978 13.5801 15.5984 13.5824 15.6059 13.5957ZM16.3901 13.5781C16.3988 13.5731 16.3914 13.5808 16.3901 13.5781ZM16.0258 13.4824C16.0176 13.4468 16.0551 13.6161 16.0258 13.4824ZM15.6948 13.3369C15.6887 13.6828 15.6211 13.308 15.6948 13.3369ZM16.8305 13.415C16.8026 13.4828 16.791 13.4303 16.8305 13.415ZM15.3637 13.3389C15.2603 13.313 15.4894 13.4831 15.3637 13.3389ZM17.1665 13.3105C17.1574 13.2917 17.1735 13.3445 17.1665 13.3105ZM17.2885 13.2559C17.2914 13.253 17.2939 13.2644 17.2885 13.2559ZM15.3706 13.0273C15.3117 12.9552 15.4514 13.1454 15.3706 13.0273ZM16.1059 12.9766C16.1833 13.0049 16.1979 13.1126 16.1059 12.9766ZM15.8247 12.9814C15.9158 13.0743 15.8456 13.0339 15.8247 12.9814ZM15.8784 12.5342C16.4569 12.632 15.5875 12.4781 15.8784 12.5342ZM15.2211 12.7168C15.3343 12.5356 15.158 12.8118 15.2211 12.7168ZM15.3432 12.6914C15.2888 12.6234 15.3868 12.747 15.3432 12.6914ZM16.1108 12.6973C16.1352 12.6984 16.1352 12.6973 16.1108 12.6973ZM15.5307 12.458C15.4167 12.4202 15.7429 12.5296 15.5307 12.458ZM16.1157 12.2715C16.2286 12.3365 16.4401 12.6124 16.1157 12.2715ZM15.8588 12.0566C15.6536 11.8521 15.7291 12.9311 15.8588 12.0566ZM15.7846 12.3936C15.9295 12.6509 15.8759 12.1988 15.7846 12.3936ZM17.1401 11.9365C17.137 11.9211 17.1448 11.9459 17.1401 11.9365ZM16.3374 11.8018C16.3805 11.7312 16.3024 11.8605 16.3374 11.8018ZM16.1684 11.75C16.1304 11.8153 16.1443 11.7746 16.1684 11.75ZM16.4975 11.584C16.4238 11.5937 16.7202 11.5543 16.4975 11.584ZM17.0112 11.5947C17.2346 11.6004 16.8917 11.592 17.0112 11.5947ZM17.5805 11.6543C17.6466 11.6024 17.6493 11.6797 17.5805 11.6543ZM16.2866 11.54C16.2312 11.5249 16.4731 11.5823 16.2866 11.54ZM16.601 11.2637C16.5358 11.1835 16.8586 11.5795 16.601 11.2637ZM16.2749 11.3115C16.2533 11.3092 16.4976 11.3394 16.2749 11.3115ZM16.9985 11.2617C17.0617 11.2299 17.0639 11.3243 16.9985 11.2617ZM17.6762 11.1768C17.7774 11.1486 17.6683 11.3316 17.6762 11.1768ZM16.6254 11.0371C16.5761 11.0295 16.8865 11.0782 16.6254 11.0371ZM17.5766 11.0986C17.653 11.0856 17.6754 11.1172 17.5766 11.0986ZM17.7241 10.9687C17.6527 10.9673 17.6705 10.9579 17.7241 10.9687ZM16.9916 10.9551C16.7503 10.8584 17.1027 11.0883 16.9916 10.9551ZM17.8383 10.9922C17.8474 11.015 17.8427 11.0695 17.8383 10.9922ZM16.6625 10.9355C16.501 10.9263 16.8124 10.8945 16.6625 10.9355ZM17.3315 10.8545C17.324 10.8471 17.4953 11.014 17.3315 10.8545ZM17.7954 10.874C17.8252 10.8759 17.8193 10.9041 17.7954 10.874ZM17.062 10.459C17.1958 10.6455 17.3263 10.563 17.062 10.459ZM18.0854 10.5322C18.0737 10.5825 18.0684 10.5522 18.0854 10.5322ZM18.5659 10.4941C18.6588 10.5563 18.5536 10.5401 18.5659 10.4941ZM17.268 10.3408C17.2297 10.4474 17.3367 10.1694 17.268 10.3408ZM17.2143 10.3096C17.1072 10.2881 17.2529 10.4768 17.2143 10.3096ZM18.6352 10.3252C18.6952 10.4106 18.5603 10.3423 18.6352 10.3252ZM18.4819 10.1016C18.5232 10.2516 18.3789 10.3048 18.4819 10.1016ZM18.6606 10.1836C18.5809 9.97375 18.7403 10.3904 18.6606 10.1836ZM18.9233 10.1543C18.9752 10.0958 18.9094 10.3666 18.9233 10.1543ZM18.4877 10.0635C18.4848 10.0042 18.5189 10.0231 18.4877 10.0635ZM17.8256 9.83008C17.5718 9.92092 18.1127 9.72451 17.8256 9.83008ZM18.1323 9.94141C18.106 9.9614 18.1163 9.94837 18.1323 9.94141ZM18.0424 9.55664C17.6408 9.79699 18.0368 9.96933 18.0424 9.55664ZM18.5043 9.66113C18.7699 9.98745 18.7956 9.66113 18.5043 9.66113ZM18.5834 9.30762C19.6147 9.76455 18.6886 9.46012 18.5834 9.30762ZM19.3149 9.36523C19.3236 9.36032 19.2965 9.37621 19.3149 9.36523ZM19.0903 8.81934C19.6533 9.64504 18.7666 9.08919 19.0903 8.81934ZM18.6997 9.24121C18.6903 9.22948 18.7505 9.17029 18.6997 9.24121ZM19.7026 9.16895C19.7958 9.13406 19.7476 9.26532 19.7026 9.16895ZM19.5981 8.97168C19.8937 9.25524 19.2952 8.88524 19.5981 8.97168ZM19.7055 9.00488C19.7985 8.98318 19.7946 9.17152 19.7055 9.00488ZM13.2944 8.70312C13.0602 8.62775 13.0512 8.82881 13.2944 8.70312ZM13.6157 8.45801C13.2858 8.44704 14.2402 8.48758 13.6157 8.45801ZM10.7836 8.40332C10.6478 8.41321 11.8601 8.83548 10.7836 8.40332ZM14.936 8.55566C14.7916 8.59298 15.4957 8.47995 14.936 8.55566ZM16.3139 8.5332C16.078 8.43897 16.4506 8.58859 16.3139 8.5332ZM15.6752 8.5498C15.4254 8.45562 15.8755 8.62398 15.6752 8.5498ZM12.7915 8.44824C12.2485 8.54346 13.7378 8.48571 12.7915 8.44824ZM19.4663 8.63574C19.4689 8.4552 19.5968 8.75334 19.4663 8.63574ZM15.3002 8.42578C14.9828 8.42624 15.5677 8.42578 15.3002 8.42578ZM16.6049 8.41699C16.2385 8.39077 16.851 8.52974 16.6049 8.41699ZM5.81587 8.52148C5.82642 8.51085 5.86057 8.52148 5.81587 8.52148ZM14.6752 8.39941C14.5543 8.17252 14.777 8.59048 14.6752 8.39941ZM19.7114 8.33594C19.808 8.2967 19.6154 8.35167 19.7114 8.33594ZM8.90962 8.42578C8.8688 8.37248 9.12244 8.52128 8.90962 8.42578ZM8.23677 8.44336C8.41183 8.38359 8.54959 8.4124 8.23677 8.44336ZM8.66548 8.31738C8.78709 8.3181 8.32355 8.3174 8.66548 8.31738ZM17.1616 8.4043C17.1415 8.45709 17.0334 8.50318 17.1616 8.4043ZM20.0073 8.34277C20.0075 8.33553 20.0086 8.50319 20.0073 8.34277ZM5.98481 8.2168C6.47243 8.10205 5.49851 8.44792 5.98481 8.2168ZM5.39399 8.34863C5.55799 8.30765 5.48834 8.39628 5.39399 8.34863ZM17.0727 7.99219C17.7058 8.46527 17.0491 8.28934 17.0727 7.99219ZM11.0854 8.32129C11.0766 8.34205 11.0404 8.3743 11.0854 8.32129ZM6.60884 8.28027C6.83587 8.22245 6.86541 8.36018 6.60884 8.28027ZM16.35 8.13672C16.0738 8.10694 16.6462 8.16673 16.35 8.13672ZM16.7709 8.20215C16.9518 8.24635 16.932 8.26367 16.7709 8.20215ZM13.7397 8.14355C13.582 8.09642 14.1059 8.2665 13.7397 8.14355ZM18.7124 8.2041C18.4048 8.02399 18.792 8.31996 18.7124 8.2041ZM19.8852 8.16895C19.8605 8.25813 19.837 8.16538 19.8852 8.16895ZM14.8881 8.18848C14.9134 8.13491 15.0047 8.18848 14.8881 8.18848ZM19.6313 8.17969C19.634 8.18652 19.6169 8.19412 19.6313 8.17969ZM4.26313 8.15137C4.13855 8.17992 4.15354 8.14246 4.26313 8.15137ZM5.26899 7.99902C5.35473 7.97515 5.81836 8.18393 5.26899 7.99902ZM10.8334 7.74316C11.2677 7.85502 10.8808 8.41605 10.8334 7.74316ZM10.5942 8.03516C10.5912 7.96861 10.6838 7.97571 10.5942 8.03516ZM7.29243 7.85156C7.98661 7.88144 6.95243 7.81746 7.29243 7.85156ZM15.4614 7.8457C15.6568 7.84678 15.5489 8.1072 15.4614 7.8457ZM20.3862 7.9502C20.4033 7.94711 20.3594 7.95487 20.3862 7.9502ZM12.0893 7.93652C12.1693 7.90121 11.9956 7.95731 12.0893 7.93652ZM13.4428 7.87988C13.5797 7.93025 13.283 8.00615 13.4428 7.87988ZM13.0336 7.89062C13.0989 7.89175 13.0685 7.92101 13.0336 7.89062ZM9.26606 7.66699C9.55731 8.05658 8.25384 7.60622 9.26606 7.66699ZM13.6625 7.8623C13.7291 7.84305 13.8252 7.94104 13.6625 7.8623ZM8.21919 7.90625C8.1979 7.90362 8.26468 7.91134 8.21919 7.90625ZM7.01216 7.7793C7.02953 7.95076 6.92824 7.81999 7.01216 7.7793ZM10.4956 7.72559C10.7073 7.59965 10.2526 7.87225 10.4956 7.72559ZM20.1225 7.80273C20.1411 7.80078 20.1332 7.80961 20.1225 7.80273ZM13.185 7.75C13.3933 7.84322 13.2076 7.78963 13.185 7.75ZM7.31196 7.69922C7.29592 7.76566 7.09951 7.84732 7.31196 7.69922ZM20.2045 7.74121C20.2108 7.74745 20.1442 7.7588 20.2045 7.74121ZM10.9047 7.68457C10.9772 7.75765 10.8017 7.58196 10.9047 7.68457ZM11.2153 7.60449C11.2075 7.51215 11.2237 7.70303 11.2153 7.60449ZM15.8051 7.63086C15.8019 7.62393 15.8253 7.61749 15.8051 7.63086ZM10.1665 7.54297C10.1831 7.55959 10.0276 7.72407 10.1665 7.54297ZM19.1215 7.52734C19.1615 7.52924 19.1851 7.65463 19.1215 7.52734ZM20.4204 7.46484C20.437 7.4502 20.4161 7.60114 20.4204 7.46484ZM14.5512 7.49219C14.711 7.35873 14.5133 7.63653 14.5512 7.49219ZM20.559 7.26367C20.421 7.45799 20.3911 7.41908 20.559 7.26367ZM20.0532 7.27148C20.2098 7.35588 20.0373 7.31317 20.0532 7.27148ZM19.6401 6.99512C19.6149 6.99212 19.6411 6.99317 19.6401 6.99512ZM20.3842 6.91992C20.3889 6.92226 20.3774 6.91992 20.3842 6.91992ZM19.3374 6.81738C19.3383 6.80353 19.3785 6.82515 19.3374 6.81738ZM18.7641 6.78711C18.8012 6.82344 18.6289 6.69828 18.7641 6.78711ZM17.6166 6.77051C17.6194 6.76775 17.6225 6.77206 17.6166 6.77051ZM17.9614 6.6377C18.0029 6.59687 17.9695 6.65082 17.9614 6.6377ZM20.0874 6.55273C20.2016 6.53057 20.2597 6.53092 20.0874 6.55273ZM18.9506 6.55957C18.8624 6.56325 19.2616 6.70755 18.9506 6.55957ZM17.6811 6.58789C17.6928 6.58195 17.688 6.58829 17.6811 6.58789ZM21.685 5.22461C21.7718 5.21249 21.6617 5.22315 21.685 5.22461ZM21.2377 4.86328C21.3251 4.76537 21.1672 5.15339 21.2377 4.86328ZM21.4155 4.69434C21.4472 4.7594 21.4178 4.72158 21.4155 4.69434ZM20.6225 4.55078C20.6442 4.64377 20.4559 4.6399 20.6225 4.55078ZM20.3999 4.58984C20.4573 4.54344 20.5164 4.56401 20.3999 4.58984ZM20.4438 4.31641C20.7814 4.21522 20.3897 4.33224 20.4438 4.31641ZM21.4477 4.47656C21.4409 4.47923 21.4333 4.46212 21.4477 4.47656ZM20.977 4.3252C21.0425 4.27673 21.0538 4.50036 20.977 4.3252ZM20.2622 4.16211C20.248 4.14509 20.2661 4.1641 20.2622 4.16211ZM20.3198 3.42871C19.8628 4.46 20.1673 3.53385 20.3198 3.42871ZM19.9555 3.85059C20.1833 4.15853 19.9109 3.7885 19.9555 3.85059ZM19.4731 3.76855C19.5316 3.82053 19.2608 3.75466 19.4731 3.76855ZM20.5737 3.68457C20.627 3.70398 20.7003 3.76259 20.5737 3.68457ZM19.9663 3.34961C19.6399 3.61513 19.9663 3.64085 19.9663 3.34961ZM20.3862 3.54492C20.3979 3.53553 20.4571 3.59572 20.3862 3.54492ZM19.4438 3.50586C19.6536 3.42617 19.237 3.58553 19.4438 3.50586ZM19.2788 3.45605C19.3313 3.42705 19.196 3.53884 19.2788 3.45605ZM19.1333 3.41113C19.0711 3.5041 19.0872 3.3989 19.1333 3.41113ZM19.5639 3.33301C19.6232 3.33001 19.6043 3.36416 19.5639 3.33301ZM19.6606 2.9707C19.6765 2.95993 19.6895 2.95784 19.6606 2.9707ZM19.0522 2.93164C19.1055 2.90077 19.0918 2.94994 19.0522 2.93164ZM19.6137 2.63672C19.7982 2.9822 19.7757 2.58415 19.6137 2.63672ZM18.5952 2.65039C18.684 2.62125 18.5294 2.76767 18.5952 2.65039ZM18.7309 2.65137C18.7766 2.64757 18.7469 2.66497 18.7309 2.65137ZM18.4467 2.52148C18.4515 2.52173 18.3895 2.49945 18.4467 2.52148ZM18.5874 2.51172C18.6457 2.49696 18.7076 2.55632 18.5874 2.51172ZM18.5112 2.49609C18.5623 2.39223 18.5418 2.47541 18.5112 2.49609ZM17.9663 2.45312C17.9697 2.40598 17.9509 2.50616 17.9663 2.45312ZM19.2866 2.11328C19.1799 2.0749 19.4581 2.18194 19.2866 2.11328ZM18.7709 2.15039C18.6612 2.10788 18.8584 2.18722 18.7709 2.15039ZM16.3676 2.13672C16.373 2.13334 16.3748 2.13489 16.3676 2.13672ZM18.6557 1.87207C18.6016 1.84211 19.0455 2.08627 18.6557 1.87207ZM19.0786 1.83105C18.7039 1.8943 19.2457 1.80369 19.0786 1.83105ZM19.2397 2.01074C19.2599 2.13938 19.3935 1.99909 19.2397 2.01074ZM16.3168 2.01172C16.3356 2.0027 16.2829 2.01877 16.3168 2.01172ZM17.6909 1.98535C17.7063 1.98227 17.6815 1.99005 17.6909 1.98535ZM17.9858 1.82715C18.0592 1.80302 17.8431 1.86858 17.9858 1.82715ZM18.3657 1.84375C18.3975 1.90692 18.3031 1.90918 18.3657 1.84375ZM18.6879 1.74805C18.6855 1.71443 18.7017 1.94131 18.6879 1.74805ZM15.9624 1.70117C15.8563 1.64282 16.0576 1.85277 15.9624 1.70117ZM16.1752 1.65625C16.1954 1.60335 16.1624 1.72178 16.1752 1.65625ZM18.1137 1.25293C17.9541 2.06549 18.6488 1.00989 18.1137 1.25293ZM18.6499 1.42676C18.616 1.39854 18.853 1.60276 18.6499 1.42676ZM18.5249 1.44922C18.3236 1.39851 18.6632 1.47533 18.5249 1.44922ZM18.0434 1.34277C18.0337 1.26914 18.073 1.56534 18.0434 1.34277ZM16.0102 1.44922C16.0229 1.44651 16.0136 1.47088 16.0102 1.44922ZM17.6333 0.979492C17.6843 1.17376 17.5067 1.54301 17.6333 0.979492ZM17.8256 1.18262C17.8961 1.22573 17.7669 1.14771 17.8256 1.18262ZM16.0473 1.23633C16.051 1.23449 16.0546 1.24362 16.0473 1.23633ZM18.3071 1.10254C18.099 1.03717 18.3133 1.10458 18.3071 1.10254ZM18.0766 1.09961C17.9172 1.07437 18.1537 1.11432 18.0766 1.09961ZM17.3559 0.960937C17.2909 1.07378 17.015 1.2854 17.3559 0.960937ZM16.6508 0.951172C16.6225 1.02858 16.5147 1.04316 16.6508 0.951172ZM17.8198 1.0127C17.8617 0.98285 17.9018 0.990443 17.8198 1.0127ZM16.9301 0.958008C16.9361 0.995978 16.9304 0.990112 16.9301 0.958008ZM16.9301 0.573242C16.7228 1.12451 16.7853 0.688826 16.9301 0.573242ZM16.0854 0.874023C16.1847 0.868472 16.1605 0.911598 16.0854 0.874023ZM16.1059 0.681641C16.0377 0.774269 15.9345 0.808081 16.1059 0.681641ZM17.2338 0.629883C16.9765 0.774792 17.4286 0.721115 17.2338 0.629883ZM16.6459 0.669922C16.553 0.761104 16.5935 0.690883 16.6459 0.669922ZM15.8667 0.508789C15.8673 0.487724 15.8679 0.562856 15.8667 0.508789ZM16.0317 0.451172C16.0473 0.443034 16.045 0.443633 16.0317 0.451172ZM17.1362 0.324219C16.9142 0.250153 17.2994 0.390718 17.1362 0.324219ZM16.2924 0.193359C16.274 0.0879694 16.2477 0.372265 16.2924 0.193359ZM16.5659 0.174805C16.4606 0.183866 16.6909 0.160873 16.5659 0.174805ZM16.9448 0.154297C16.8693 0.0905629 16.9795 0.265307 16.9448 0.154297ZM16.9331 0C16.838 0.0781351 17.0835 0.150166 16.9331 0Z" fill="currentColor"></path></svg>