<svg width="23" height="19" viewBox="0 0 23 19" fill="none" xmlns="http://www.w3.org/2000/svg" class="h-full w-full"><title>cart</title><path d="M6.03657 4.66901C6.24475 4.18464 6.4395 3.71894 6.63905 3.25534C6.66114 3.20413 6.70945 3.16341 6.74782 3.12042C6.80742 3.0537 6.88145 2.9977 6.92691 2.92185C7.00063 2.79877 7.05902 2.66455 7.11784 2.53231C7.14004 2.48239 7.14542 2.42477 7.15847 2.37067C7.17302 2.32919 7.18754 2.28772 7.21481 2.22617C7.2321 2.18651 7.24704 2.14586 7.25959 2.10428C7.28095 2.06667 7.30229 2.02904 7.33499 1.98492C7.35528 1.96079 7.36431 1.94318 7.37932 1.91528C7.40166 1.86036 7.41809 1.81578 7.43446 1.77122C7.44038 1.76113 7.44622 1.75101 7.4607 1.72453C7.47684 1.68817 7.48453 1.66831 7.49778 1.64524C7.50013 1.62402 7.49677 1.6059 7.4935 1.58783C7.50332 1.56124 7.51331 1.53471 7.53551 1.50179C7.56085 1.47043 7.57374 1.44544 7.59134 1.4123C7.59856 1.38162 7.60119 1.35914 7.60375 1.33664C7.60819 1.31667 7.61266 1.29669 7.6306 1.27022C7.65824 1.21978 7.6725 1.17585 7.6867 1.13194C7.69286 1.11393 7.69899 1.09591 7.71589 1.07318C7.73622 1.048 7.74581 1.02754 7.75534 1.0071C7.76353 0.972886 7.77179 0.938687 7.793 0.896117C7.82444 0.845986 7.84289 0.80426 7.86673 0.751972C7.88884 0.666406 7.90548 0.591375 7.92207 0.516351C7.92984 0.507292 7.93763 0.498238 7.95748 0.475462C8.03094 0.336167 8.06186 0.176341 8.22817 0.167909C8.23172 0.16767 8.23626 0.153267 8.24037 0.145482C8.24037 0.145482 8.2429 0.14594 8.25202 0.146134C8.28359 0.144807 8.32153 0.150521 8.32601 0.140595C8.3651 0.0542465 8.40764 0.0859249 8.45536 0.120413C8.46984 0.159435 8.48053 0.190407 8.49531 0.226688C8.50415 0.249701 8.50875 0.271911 8.50905 0.292879C8.51749 0.311242 8.52964 0.323019 8.55124 0.331328C8.58163 0.291485 8.60171 0.254379 8.6238 0.218763C8.65378 0.170538 8.68527 0.123402 8.72518 0.0803189C8.77745 0.0951717 8.82479 0.100168 8.8657 0.117295C8.8657 0.117295 8.8657 0.117295 8.8657 0.117295C8.86923 0.118771 8.87271 0.120339 8.87614 0.122008C8.90977 0.138378 8.95398 0.169263 8.95853 0.204259C8.97965 0.366718 9.0656 0.462116 9.20072 0.420116C9.32005 0.383071 9.39759 0.370099 9.36655 0.547829C9.36365 0.564295 9.38492 0.582807 9.39499 0.600381C9.38253 0.597297 9.37007 0.594215 9.35761 0.591132C9.33088 0.646951 9.30416 0.702769 9.27743 0.758588C9.26287 0.794011 9.24826 0.829418 9.22029 0.873164C9.20011 0.908588 9.19315 0.935621 9.18621 0.962653C9.16082 1.03234 9.13545 1.10202 9.0945 1.18737C9.01474 1.35638 8.95055 1.50976 8.88636 1.66311C8.89695 1.66757 8.90754 1.67204 8.91812 1.6765C8.93645 1.64668 8.95478 1.61685 8.97311 1.58703C8.98059 1.59675 8.98806 1.60646 8.99554 1.61618C8.95033 1.65647 8.90378 1.69495 8.86085 1.73823C8.84934 1.7498 8.84903 1.77605 8.84361 1.79555C8.83966 1.80748 8.83573 1.81941 8.81664 1.83836C8.76044 1.95592 8.71944 2.06646 8.67841 2.17694C8.67279 2.19599 8.66711 2.21504 8.64804 2.24141C8.54953 2.33997 8.65633 2.33929 8.67198 2.38226C8.65595 2.42681 8.6399 2.47137 8.6115 2.52035C8.59047 2.5224 8.58187 2.52005 8.57729 2.50839C8.59047 2.47176 8.5997 2.44445 8.60896 2.41718C8.60181 2.41595 8.59465 2.41472 8.58749 2.41348C8.58312 2.44811 8.57875 2.48274 8.56972 2.52738C8.50811 2.67425 8.45111 2.81105 8.39083 2.94803C8.38717 2.94907 8.38412 2.95058 8.38181 2.95252C8.38584 2.95068 8.3899 2.94886 8.40294 2.9517C8.41206 2.95618 8.42137 2.96043 8.43078 2.96442C8.42758 2.97564 8.42433 2.98688 8.40453 3.00473C8.28611 3.15534 8.21555 3.30646 8.25541 3.48266C8.2359 3.5366 8.21639 3.5905 8.18161 3.66048C7.85557 4.41909 7.54475 5.16162 7.23393 5.90413C7.23582 5.90511 7.2377 5.90608 7.23959 5.90706C7.34608 5.65268 7.45256 5.39831 7.55904 5.14393C7.56781 5.14791 7.57658 5.15189 7.58535 5.15587C7.57031 5.19648 7.55637 5.23758 7.53984 5.27755C7.4524 5.48831 7.36233 5.698 7.27798 5.90995C7.26205 5.95003 7.26768 5.9985 7.26326 6.04307C7.2406 6.10422 7.21789 6.16538 7.17942 6.24152C7.12788 6.35358 7.09208 6.45065 7.05634 6.54772C7.0456 6.57558 7.03487 6.60343 7.00992 6.6437C6.98948 6.66244 6.98412 6.6709 6.97706 6.67482C6.872 6.73393 6.7859 6.80131 6.80238 6.95457C6.80525 6.98139 6.75007 7.02573 6.71967 7.05968C6.69574 7.08642 6.65848 7.10572 6.64671 7.13572C6.63878 7.1562 6.66465 7.18947 6.6747 7.2154C6.61842 7.36619 6.56214 7.51698 6.50587 7.66776C6.50584 7.66788 6.50463 7.67297 6.49959 7.66312C6.52423 7.55262 6.55397 7.45208 6.58366 7.35152C6.57506 7.34907 6.56646 7.34662 6.55785 7.34417C6.48573 7.51646 6.41361 7.68875 6.34149 7.86103C6.34149 7.86103 6.33909 7.85532 6.33581 7.85176C6.31019 7.84994 6.28789 7.85166 6.25628 7.84997C6.20095 7.84145 6.15492 7.83642 6.10892 7.83136C6.10851 7.83126 6.09881 7.82878 6.08855 7.81848C5.91778 7.74085 5.75752 7.67379 5.58845 7.60301C5.61029 7.58958 5.63213 7.57616 5.65397 7.56273C5.65264 7.5503 5.65116 7.53781 5.64977 7.52539C5.59758 7.53746 5.54519 7.54773 5.49331 7.56263C5.47483 7.56794 5.45116 7.5982 5.44115 7.59325C5.41515 7.58036 5.37978 7.55928 5.37582 7.53256C5.35903 7.41823 5.34387 7.39779 5.23283 7.3879C5.22619 7.37647 5.22299 7.36949 5.22481 7.35266C5.23379 7.25695 5.2382 7.17086 5.24281 7.07842C5.21014 7.11203 5.17748 7.14564 5.14481 7.17925C5.14469 7.17884 5.14184 7.16864 5.15127 7.15604C5.1713 7.08137 5.18176 7.01964 5.19221 6.95786C5.19574 6.94598 5.19929 6.93411 5.21668 6.91814C5.25892 6.89054 5.29848 6.87212 5.31192 6.84188C5.32064 6.82214 5.29122 6.78517 5.27894 6.74853C5.2741 6.73439 5.26942 6.72766 5.26463 6.72088C5.28902 6.64982 5.31341 6.57875 5.34862 6.49433C5.35997 6.4673 5.36817 6.43898 5.37317 6.40949C5.37947 6.39132 5.38576 6.37319 5.40229 6.339C5.41353 6.29827 5.41454 6.27355 5.4156 6.24886C5.42805 6.20719 5.44287 6.16645 5.4601 6.12672C5.5639 5.88841 5.65622 5.67054 5.74519 5.45131C5.76083 5.41284 5.76262 5.36876 5.77066 5.32724C5.85532 5.11423 5.93995 4.90122 6.03657 4.66901ZM6.94635 6.62753C6.95123 6.62771 6.95611 6.62789 6.96099 6.62806C7.03624 6.44828 7.1115 6.2685 7.18676 6.08873C7.17801 6.08565 7.16927 6.08257 7.16053 6.07949C7.1076 6.20593 7.05469 6.33237 6.99186 6.48012C6.97669 6.52926 6.96152 6.57839 6.94635 6.62753ZM8.01489 3.85678C8.0107 3.87927 8.00635 3.9017 8.00212 3.92415C8.00844 3.92545 8.01476 3.92675 8.02108 3.92805C8.0864 3.772 8.15173 3.61596 8.21705 3.45991C8.20694 3.45527 8.19682 3.45064 8.18671 3.446C8.1325 3.5755 8.07824 3.70498 8.01489 3.85678ZM8.40319 2.72078C8.40625 2.75744 8.40935 2.79412 8.42276 2.81386C8.43186 2.78243 8.44095 2.751 8.45005 2.71957C8.43443 2.71997 8.41881 2.72038 8.40319 2.72078ZM8.27528 3.15811C8.29352 3.11452 8.31177 3.07094 8.33001 3.02736C8.32013 3.02365 8.31025 3.01993 8.30037 3.01622C8.2816 3.0518 8.26377 3.08779 8.24688 3.12419C8.25635 3.13549 8.26581 3.1468 8.27528 3.15811ZM5.88036 7.67968C5.89574 7.6908 5.91284 7.70108 5.93105 7.71016C5.94364 7.7038 5.95623 7.69744 5.96882 7.69108C5.94307 7.67803 5.91733 7.66499 5.89159 7.65194C5.88784 7.66119 5.8841 7.67044 5.88036 7.67968ZM15.6839 2.48858C15.8363 2.8625 15.9864 3.22313 16.1338 3.58152C16.1789 3.69108 16.2237 3.80043 16.2682 3.90988C16.2892 3.96156 16.2843 4.02454 16.288 4.08205C16.2937 4.17133 16.2816 4.26337 16.3038 4.34899C16.3397 4.48788 16.3943 4.62367 16.4473 4.75838C16.4672 4.80923 16.5045 4.8535 16.5339 4.90076C16.5532 4.94024 16.5726 4.97968 16.5973 5.0423C16.6134 5.08245 16.6319 5.12162 16.6527 5.15975C16.6645 5.20136 16.6763 5.24297 16.6848 5.29723C16.6878 5.32861 16.694 5.34741 16.7033 5.37767C16.7268 5.43213 16.747 5.47512 16.7672 5.51806C16.7703 5.52936 16.7734 5.54062 16.7821 5.56952C16.7967 5.60653 16.8054 5.62595 16.8125 5.65157C16.826 5.66814 16.8413 5.67847 16.8564 5.68882C16.8685 5.71448 16.8804 5.74021 16.8883 5.77913C16.8928 5.81919 16.9016 5.84592 16.9128 5.88171C16.9296 5.90838 16.9438 5.92603 16.958 5.94365C16.9691 5.96082 16.9802 5.97802 16.9865 6.00938C17.003 6.06447 17.0243 6.10546 17.0456 6.1464C17.0541 6.16342 17.0627 6.18043 17.067 6.20842C17.0707 6.24058 17.0785 6.26176 17.0864 6.2829C17.105 6.31275 17.1236 6.34263 17.139 6.38762C17.1527 6.44519 17.1695 6.48762 17.19 6.5413C17.2354 6.6171 17.2772 6.68162 17.319 6.74608C17.32 6.75798 17.321 6.76988 17.3233 6.80001C17.3709 6.95009 17.4631 7.08428 17.3524 7.20868C17.3501 7.21137 17.3571 7.22472 17.3598 7.23311C17.3598 7.23311 17.3577 7.23458 17.3512 7.24095C17.3299 7.26437 17.2993 7.28738 17.3032 7.29755C17.3373 7.38599 17.2848 7.39406 17.2268 7.40386C17.1888 7.38679 17.1593 7.37266 17.123 7.35773C17.1004 7.34788 17.0814 7.33557 17.0662 7.32106C17.0472 7.31419 17.0303 7.31458 17.0092 7.32414C17.0163 7.37375 17.0286 7.41409 17.0385 7.45483C17.0518 7.51003 17.0633 7.56554 17.066 7.6242C17.0187 7.65102 16.9819 7.68123 16.941 7.69836C16.941 7.69836 16.941 7.69836 16.941 7.69836C16.9375 7.69984 16.9339 7.70122 16.9303 7.70249C16.8951 7.71496 16.8421 7.72477 16.8139 7.70346C16.6834 7.60449 16.5551 7.59877 16.4902 7.7245C16.4328 7.83551 16.3877 7.89985 16.2828 7.75301C16.2731 7.73939 16.245 7.74155 16.2254 7.73639C16.2364 7.72968 16.2473 7.72296 16.2583 7.71625C16.2372 7.65804 16.2162 7.59983 16.1952 7.54162C16.1802 7.50638 16.1652 7.47113 16.1537 7.4205C16.1426 7.38126 16.1283 7.35733 16.1139 7.33342C16.0821 7.26643 16.0502 7.19945 16.0182 7.11038C15.9537 6.93495 15.8895 6.78158 15.8253 6.62823C15.8147 6.63264 15.8041 6.63705 15.7935 6.64146C15.8019 6.67545 15.8103 6.70944 15.8186 6.74343C15.8065 6.74193 15.7943 6.74044 15.7821 6.73894C15.7852 6.67846 15.7904 6.6183 15.7897 6.55734C15.7895 6.54103 15.7711 6.52238 15.761 6.50483C15.7552 6.49365 15.7495 6.48248 15.7494 6.45557C15.7051 6.33304 15.6551 6.22625 15.6052 6.11949C15.5956 6.10211 15.586 6.0847 15.5806 6.05261C15.5795 5.91327 15.5051 5.98983 15.4635 5.97082C15.443 5.92813 15.4225 5.88543 15.4075 5.83082C15.4208 5.8144 15.4285 5.80993 15.4401 5.81484C15.4569 5.84994 15.4699 5.87568 15.4828 5.90142C15.4887 5.89718 15.4946 5.89295 15.5005 5.88872C15.4789 5.8613 15.4573 5.83388 15.4318 5.79612C15.3705 5.64917 15.313 5.51255 15.2577 5.37347C15.2596 5.37015 15.2606 5.36691 15.2609 5.3639C15.2593 5.36806 15.2578 5.37224 15.2466 5.37952C15.237 5.38289 15.2275 5.38653 15.218 5.39044C15.2123 5.38028 15.2065 5.37008 15.2077 5.34344C15.1835 5.15339 15.1254 4.99707 14.9719 4.90181C14.9472 4.85006 14.9225 4.79833 14.897 4.72444C14.8241 4.54544 14.7512 4.36765 14.6783 4.1908C14.4399 3.61215 14.2018 3.04345 13.9638 2.47475C13.9618 2.47541 13.9597 2.47607 13.9577 2.47673C14.0642 2.73111 14.1707 2.98548 14.2772 3.23986C14.2682 3.24331 14.2592 3.24677 14.2502 3.25022C14.2318 3.21101 14.2123 3.17223 14.1954 3.1324C14.1067 2.9222 14.0205 2.71088 13.9287 2.50204C13.9113 2.46258 13.8729 2.43257 13.8442 2.39814C13.8166 2.33908 13.7889 2.27998 13.7617 2.19914C13.718 2.08378 13.674 1.99015 13.6299 1.89657C13.6176 1.86936 13.6053 1.84218 13.5941 1.79615C13.5951 1.76843 13.5929 1.75868 13.595 1.7509C13.6266 1.63457 13.6391 1.52595 13.5183 1.43013C13.4972 1.41336 13.5043 1.34293 13.5015 1.29744C13.4992 1.26164 13.5116 1.22155 13.4985 1.1921C13.4895 1.17208 13.4476 1.16717 13.4221 1.15612C13.3542 1.01021 13.2863 0.864298 13.2183 0.718386C13.2183 0.718287 13.2155 0.713854 13.2261 0.717174C13.2875 0.812276 13.3382 0.904019 13.389 0.99574C13.3968 0.991332 13.4046 0.986924 13.4124 0.982516C13.3403 0.810228 13.2681 0.637941 13.196 0.465653C13.196 0.465653 13.2018 0.467946 13.2066 0.468116C13.2259 0.451138 13.2403 0.43405 13.2637 0.412709C13.3086 0.379276 13.3445 0.350017 13.3804 0.320801C13.3807 0.320579 13.3893 0.315402 13.4039 0.315326C13.579 0.24815 13.7392 0.181051 13.9083 0.110278C13.9026 0.135259 13.8968 0.160241 13.891 0.185222C13.9008 0.192995 13.9108 0.200711 13.9206 0.208433C13.9486 0.162788 13.9781 0.118257 14.0038 0.0708466C14.013 0.0539544 14.0081 0.0158535 14.0186 0.0122005C14.0461 0.00272047 14.0859 -0.00767969 14.1077 0.00825038C14.201 0.0765224 14.2262 0.0800706 14.3111 0.00790618C14.3239 0.0111998 14.3311 0.0138201 14.3419 0.0269257C14.4037 0.100492 14.462 0.164047 14.5246 0.232211C14.5236 0.185353 14.5226 0.138494 14.5215 0.0916353C14.5219 0.091833 14.5312 0.0969643 14.5335 0.112528C14.5727 0.179194 14.6093 0.229968 14.646 0.280768C14.652 0.291624 14.6579 0.302484 14.6571 0.326078C14.6471 0.375538 14.6325 0.416649 14.6446 0.447442C14.6525 0.467505 14.6995 0.472498 14.7342 0.489464C14.7477 0.495936 14.7558 0.497332 14.764 0.498671C14.7975 0.565914 14.831 0.633174 14.8664 0.717494C14.8777 0.744551 14.8921 0.770268 14.9096 0.794522C14.9182 0.811764 14.9267 0.828972 14.9394 0.864745C14.9605 0.901335 14.9774 0.919397 14.9943 0.937483C15.0152 0.975594 15.0339 1.01474 15.0501 1.0549C15.147 1.29609 15.2374 1.51476 15.3311 1.73198C15.3476 1.77013 15.3777 1.80233 15.4017 1.83721C15.494 2.04701 15.5863 2.25678 15.6839 2.48858ZM13.6503 1.76221C13.6467 1.76556 13.6432 1.76891 13.6396 1.77226C13.7149 1.95204 13.7901 2.13182 13.8654 2.3116C13.8737 2.30753 13.882 2.30346 13.8904 2.2994C13.8374 2.17295 13.7845 2.04653 13.7233 1.89808C13.699 1.85279 13.6746 1.8075 13.6503 1.76221ZM14.8742 4.46791C14.8611 4.44914 14.8482 4.4303 14.8352 4.41153C14.8298 4.41513 14.8244 4.41872 14.8191 4.42231C14.8844 4.57835 14.9497 4.7344 15.015 4.89044C15.0254 4.88649 15.0358 4.88254 15.0462 4.87859C14.992 4.74909 14.9379 4.61957 14.8742 4.46791ZM15.4109 5.54177C15.3827 5.51822 15.3544 5.49468 15.3309 5.49038C15.3469 5.51892 15.3629 5.54746 15.3789 5.576C15.3896 5.56459 15.4003 5.55318 15.4109 5.54177ZM15.1892 5.14373C15.2074 5.18731 15.2257 5.2309 15.2439 5.27448C15.2535 5.27005 15.2631 5.26561 15.2726 5.26118C15.2605 5.22284 15.2473 5.18488 15.2333 5.14731C15.2186 5.14611 15.2039 5.14492 15.1892 5.14373ZM13.6488 0.26442C13.6301 0.267581 13.6108 0.272541 13.5915 0.27914C13.5872 0.292574 13.5829 0.306007 13.5786 0.31944C13.606 0.310256 13.6334 0.301072 13.6607 0.291888C13.6568 0.282732 13.6528 0.273576 13.6488 0.26442ZM7.74044 11.3373C7.78896 11.6589 7.84032 11.966 7.88651 12.2739C7.89157 12.3079 7.86882 12.3468 7.85581 12.383C7.83557 12.4393 7.79767 12.4958 7.79407 12.5511C7.78827 12.6409 7.8011 12.7302 7.81262 12.8188C7.81698 12.8522 7.83963 12.883 7.85394 12.915C7.86094 12.9412 7.86797 12.9675 7.87343 13.0087C7.87719 13.0351 7.88346 13.0611 7.89227 13.0866C7.89151 13.1136 7.89078 13.1406 7.88323 13.1752C7.87702 13.195 7.87751 13.2073 7.87767 13.227C7.88428 13.263 7.89112 13.2915 7.89801 13.32C7.89764 13.3273 7.89735 13.3346 7.89731 13.3534C7.90051 13.3777 7.90323 13.3906 7.90264 13.4072C7.91066 13.4187 7.92218 13.4264 7.9336 13.4341C7.93766 13.4511 7.94156 13.4682 7.93784 13.4932C7.93066 13.5186 7.93128 13.536 7.93169 13.5593C7.93995 13.5773 7.94833 13.5896 7.95677 13.6017C7.96238 13.6134 7.96796 13.6251 7.9649 13.6452C7.96477 13.681 7.9732 13.7083 7.98166 13.7357C7.98483 13.747 7.98805 13.7584 7.98412 13.7762C7.97836 13.7966 7.97972 13.8105 7.98111 13.8244C7.99022 13.8446 7.99925 13.8648 8.00097 13.8942C7.99739 13.9313 8.00112 13.9592 8.00516 13.9944C8.0265 14.0455 8.04761 14.0893 8.06876 14.1331C8.06629 14.1406 8.0638 14.1481 8.05732 14.1671C8.05944 14.2648 8.10835 14.3563 7.96753 14.4248C7.96456 14.4263 7.96743 14.4352 7.96755 14.4407C7.96755 14.4407 7.96513 14.4415 7.9571 14.4449C7.93024 14.4577 7.89449 14.4696 7.8953 14.4762C7.90223 14.5343 7.85016 14.535 7.79224 14.5363C7.76112 14.5225 7.73712 14.5112 7.70704 14.4988C7.68843 14.4908 7.67388 14.4815 7.66368 14.4712C7.64761 14.4653 7.63145 14.4642 7.6087 14.4684C7.60114 14.5 7.60126 14.5262 7.59892 14.5524C7.59569 14.588 7.59064 14.6237 7.57632 14.6605C7.52376 14.6734 7.48018 14.6892 7.43642 14.6965C7.43642 14.6965 7.43642 14.6965 7.43642 14.6965C7.43265 14.6971 7.42888 14.6977 7.4251 14.6982C7.38805 14.703 7.3349 14.7047 7.31434 14.6891C7.21887 14.6164 7.09877 14.6021 7.00105 14.6753C6.91472 14.7398 6.85335 14.7763 6.79606 14.6758C6.79077 14.6665 6.76347 14.6655 6.74637 14.6606C6.75868 14.6573 6.77099 14.6541 6.78331 14.6508C6.7801 14.6127 6.77688 14.5746 6.77367 14.5364C6.76955 14.5132 6.76547 14.4899 6.76907 14.4573C6.76984 14.4319 6.76307 14.4157 6.75629 14.3996C6.74534 14.3551 6.73437 14.3106 6.72954 14.2523C6.71881 14.1374 6.70193 14.0362 6.68507 13.9351C6.67374 13.9369 6.6624 13.9388 6.65106 13.9407C6.64925 13.9626 6.64744 13.9845 6.64563 14.0065C6.63451 14.0045 6.62339 14.0026 6.61227 14.0006C6.63252 13.9631 6.6548 13.926 6.67165 13.8878C6.67618 13.8776 6.66399 13.8644 6.65946 13.8526C6.65724 13.8452 6.65501 13.8377 6.66264 13.8209C6.6558 13.7407 6.63906 13.6698 6.62237 13.5989C6.61823 13.5873 6.61413 13.5756 6.61823 13.5551C6.65725 13.468 6.56457 13.5096 6.53056 13.4943C6.52339 13.4659 6.51622 13.4375 6.51771 13.4022C6.53506 13.393 6.54365 13.3908 6.55318 13.3949C6.55908 13.4182 6.56399 13.4354 6.56887 13.4525C6.57568 13.4504 6.5825 13.4482 6.58932 13.4461C6.5767 13.4271 6.56408 13.4082 6.55076 13.3825C6.53473 13.2856 6.51946 13.1955 6.50696 13.104C6.50965 13.1021 6.5116 13.1001 6.51269 13.0983C6.51005 13.1007 6.50738 13.1032 6.49467 13.1068C6.48461 13.1081 6.47449 13.1096 6.4644 13.1113C6.46186 13.1044 6.45936 13.0976 6.46814 13.0811C6.49979 12.9603 6.48954 12.8578 6.37124 12.7855C6.36263 12.7512 6.35405 12.7168 6.35113 12.6685C6.27514 12.1649 6.19351 11.6752 6.11189 11.1855C6.10978 11.1857 6.10768 11.1859 6.10557 11.1862C6.13353 11.354 6.1615 11.5217 6.18946 11.6895C6.17993 11.6909 6.17041 11.6923 6.16088 11.6937C6.15471 11.6677 6.14735 11.6419 6.14279 11.6156C6.11894 11.4769 6.09788 11.3377 6.07077 11.1996C6.06563 11.1735 6.03773 11.1515 6.02044 11.1276C6.01116 11.0884 6.00192 11.0492 5.99929 10.9965C5.99101 10.9208 5.97612 10.8586 5.96119 10.7965C5.95733 10.7785 5.95346 10.7605 5.95608 10.7308C5.96499 10.7135 5.96564 10.7073 5.96993 10.7026C6.03336 10.6325 6.07637 10.5657 5.98932 10.4958C5.97409 10.4836 6.0011 10.4402 6.01146 10.4115C6.01961 10.389 6.0429 10.365 6.03892 10.3455C6.0361 10.3322 5.99779 10.3257 5.97675 10.3166C5.95421 10.2198 5.93168 10.123 5.90914 10.0262C5.90911 10.0262 5.90775 10.0232 5.91682 10.0261C5.94778 10.0906 5.96958 10.1522 5.99143 10.2137C6.00009 10.2116 6.00874 10.2095 6.01739 10.2074C5.99846 10.0937 5.97952 9.98011 5.96058 9.86648C5.96058 9.86648 5.96538 9.86839 5.96993 9.8689C5.9931 9.8599 6.0117 9.85043 6.04003 9.83905C6.09225 9.8219 6.13471 9.80661 6.17717 9.79135C6.17757 9.79124 6.18719 9.78872 6.20101 9.78988C6.38654 9.7625 6.5579 9.73393 6.73869 9.7038C6.72605 9.71893 6.7134 9.73405 6.70075 9.74918C6.70781 9.75485 6.71502 9.7605 6.72213 9.76614C6.76184 9.73996 6.80259 9.71459 6.84069 9.68712C6.85426 9.67734 6.86052 9.65312 6.87158 9.65172C6.90034 9.64808 6.94113 9.6449 6.95726 9.65667C7.02612 9.70708 7.04902 9.7114 7.1504 9.6734C7.1616 9.67652 7.1677 9.67876 7.1741 9.68783C7.21168 9.73894 7.24869 9.78349 7.28853 9.83129C7.30103 9.80193 7.31353 9.77258 7.32603 9.74322C7.32632 9.74337 7.33364 9.74735 7.33141 9.75727C7.3494 9.80217 7.36958 9.83694 7.38979 9.87173C7.39234 9.87901 7.39489 9.88629 7.38732 9.90096C7.36363 9.93103 7.33793 9.95549 7.34057 9.97573C7.34234 9.98893 7.3855 9.99596 7.41357 10.0094C7.4245 10.0146 7.43176 10.0162 7.43916 10.0177C7.45163 10.0625 7.46411 10.1073 7.4735 10.1629C7.47643 10.1807 7.48274 10.198 7.49237 10.2146C7.49551 10.2261 7.49863 10.2376 7.50046 10.261C7.50999 10.2856 7.52084 10.2983 7.53163 10.311C7.54056 10.3365 7.54698 10.3625 7.55083 10.389C7.5735 10.5477 7.59648 10.6918 7.62302 10.8353C7.62765 10.8605 7.64701 10.8832 7.6597 10.9069C7.68704 11.0457 7.7144 11.1844 7.74044 11.3373ZM6.0191 10.7142C6.01477 10.716 6.01044 10.7178 6.00611 10.7196C6.02587 10.8382 6.04563 10.9568 6.06539 11.0753C6.07447 11.0735 6.08354 11.0717 6.09261 11.0698C6.07872 10.9864 6.0648 10.903 6.04941 10.8052C6.03931 10.7749 6.0292 10.7446 6.0191 10.7142ZM6.40318 12.5064C6.39616 12.4935 6.3893 12.4807 6.38234 12.4679C6.37622 12.4697 6.3701 12.4715 6.36398 12.4733C6.38113 12.5762 6.39828 12.6791 6.41544 12.782C6.42644 12.7804 6.43744 12.7788 6.44845 12.7772C6.43421 12.6918 6.42004 12.6064 6.40318 12.5064ZM6.60401 13.2219C6.58395 13.2048 6.56385 13.1877 6.54281 13.1831C6.5498 13.2023 6.55679 13.2214 6.56378 13.2406C6.57719 13.2343 6.5906 13.2281 6.60401 13.2219ZM6.50791 12.9548C6.5127 12.9835 6.51749 13.0122 6.52228 13.041C6.53265 13.039 6.54301 13.037 6.55338 13.0351C6.55285 13.0101 6.55129 12.9853 6.54873 12.9607C6.53512 12.9587 6.52152 12.9567 6.50791 12.9548ZM6.44814 9.77848C6.42947 9.7789 6.40971 9.78039 6.38954 9.78291C6.3816 9.79094 6.37366 9.79897 6.36571 9.80701C6.39432 9.80355 6.42292 9.80009 6.45153 9.79663C6.4504 9.79058 6.44927 9.78453 6.44814 9.77848ZM14.1192 12.7322C14.1952 12.4125 14.263 12.1054 14.336 11.7994C14.3441 11.7656 14.3798 11.7377 14.4055 11.7086C14.4454 11.6635 14.5018 11.6247 14.526 11.5742C14.5651 11.4923 14.5868 11.4037 14.6094 11.3163C14.618 11.2833 14.6085 11.246 14.6073 11.2107C14.6107 11.1834 14.614 11.1562 14.6245 11.1155C14.6309 11.0893 14.6349 11.0626 14.6363 11.0353C14.6472 11.0103 14.658 10.9853 14.678 10.9557C14.6912 10.9394 14.6954 10.9278 14.7026 10.9093C14.71 10.8731 14.7144 10.8437 14.7188 10.8144C14.7218 10.8077 14.7249 10.801 14.732 10.7834C14.7381 10.7594 14.7405 10.7463 14.7472 10.731C14.7441 10.7172 14.7363 10.7056 14.7287 10.6941C14.7313 10.6766 14.7341 10.6591 14.7469 10.6371C14.7632 10.616 14.7691 10.5995 14.7775 10.5775C14.7767 10.5574 14.7735 10.5428 14.7702 10.5282C14.7694 10.5152 14.7686 10.5022 14.779 10.4845C14.7926 10.451 14.7951 10.4221 14.7975 10.3933C14.7988 10.3815 14.8001 10.3697 14.8105 10.3544C14.8235 10.3375 14.8275 10.3239 14.8314 10.3104C14.8305 10.2881 14.8298 10.2657 14.8392 10.2375C14.8565 10.2041 14.8635 10.1765 14.873 10.142C14.8725 10.086 14.8694 10.0371 14.8662 9.98812C14.8713 9.98201 14.8765 9.97589 14.8896 9.96051C14.9244 9.8681 14.9135 9.76396 15.0698 9.75264C15.0731 9.75236 15.0738 9.74291 15.0757 9.73775C15.0757 9.73775 15.0783 9.73795 15.087 9.73775C15.1167 9.73578 15.1543 9.73812 15.1561 9.73156C15.1715 9.67451 15.22 9.69343 15.2742 9.71397C15.2979 9.73862 15.3159 9.75821 15.3391 9.78108C15.3534 9.7956 15.3633 9.80976 15.3689 9.82327C15.3816 9.83481 15.3962 9.84197 15.4188 9.84656C15.4377 9.8198 15.4475 9.79516 15.4595 9.77142C15.4759 9.73927 15.494 9.70776 15.5211 9.67857C15.5747 9.6863 15.621 9.68784 15.6643 9.69744C15.6643 9.69744 15.6643 9.69744 15.6643 9.69744C15.6681 9.69827 15.6718 9.69915 15.6755 9.70011C15.7116 9.70947 15.7616 9.72782 15.7747 9.75022C15.8359 9.85421 15.9419 9.91267 16.06 9.88081C16.1643 9.85271 16.2349 9.8416 16.2502 9.95728C16.2516 9.968 16.2766 9.97918 16.2906 9.99016C16.278 9.98861 16.2653 9.98706 16.2527 9.98552C16.2413 10.0225 16.23 10.0594 16.2186 10.0963C16.2137 10.1197 16.2087 10.143 16.1931 10.1722C16.1828 10.1958 16.183 10.2134 16.1833 10.2311C16.1767 10.2769 16.1701 10.3228 16.1527 10.3792C16.1194 10.491 16.097 10.5922 16.0746 10.6933C16.0858 10.6958 16.097 10.6983 16.1082 10.7008C16.1182 10.681 16.1281 10.6611 16.138 10.6412C16.1476 10.6472 16.1572 10.6532 16.1667 10.6592C16.1339 10.6868 16.0992 10.7132 16.0693 10.7427C16.0612 10.7505 16.0676 10.7675 16.0673 10.7802C16.0666 10.7881 16.0659 10.7959 16.0524 10.8088C16.0286 10.8866 16.0175 10.9593 16.0063 11.032C16.0058 11.0444 16.0052 11.0569 15.9937 11.0746C15.9247 11.1416 16.0263 11.1374 16.0521 11.1646C16.0481 11.1939 16.044 11.2232 16.0293 11.2557C16.0098 11.2578 16.001 11.2566 15.9937 11.2492C15.997 11.2252 15.9989 11.2072 16.0009 11.1893C15.9937 11.1888 15.9866 11.1882 15.9795 11.1877C15.9841 11.2102 15.9886 11.2326 15.9913 11.2617C15.9697 11.3586 15.95 11.4488 15.9272 11.5393C15.924 11.5401 15.9214 11.5412 15.9197 11.5425C15.9231 11.5412 15.9265 11.5398 15.9396 11.5412C15.9495 11.5438 15.9594 11.5462 15.9694 11.5484C15.9692 11.5558 15.9689 11.5631 15.9546 11.5753C15.8798 11.6766 15.8508 11.7766 15.9333 11.8888C15.9283 11.9242 15.9233 11.9597 15.9079 12.006C15.789 12.5066 15.6805 12.9964 15.572 13.4861C15.574 13.4867 15.5761 13.4872 15.5781 13.4878C15.6153 13.32 15.6524 13.1522 15.6896 12.9845C15.699 12.9867 15.7083 12.989 15.7177 12.9912C15.7136 13.0179 15.7107 13.0449 15.7051 13.0713C15.675 13.2103 15.6422 13.3486 15.6154 13.4883C15.6104 13.5147 15.628 13.5457 15.635 13.5746C15.6289 13.6149 15.6227 13.6551 15.6053 13.7055C15.5845 13.7796 15.5749 13.8435 15.5654 13.9073C15.5622 13.9257 15.559 13.944 15.5454 13.9708C15.5307 13.9836 15.5277 13.9893 15.522 13.9921C15.4369 14.0339 15.3718 14.0804 15.4263 14.1786C15.4358 14.1958 15.3944 14.2263 15.374 14.2493C15.358 14.2674 15.3274 14.2811 15.3237 14.3009C15.3214 14.3144 15.3544 14.3349 15.3705 14.3513C15.355 14.4505 15.3395 14.5497 15.324 14.6489C15.324 14.649 15.3241 14.6523 15.3168 14.6461C15.3124 14.574 15.3153 14.5082 15.3182 14.4423C15.3094 14.441 15.3006 14.4397 15.2918 14.4384C15.2666 14.5521 15.2414 14.6657 15.2162 14.7793C15.2162 14.7793 15.2125 14.7757 15.2085 14.7736C15.1836 14.7733 15.1628 14.7752 15.1323 14.7752C15.0774 14.7717 15.0323 14.7701 14.9872 14.7684C14.9868 14.7684 14.9769 14.7671 14.9645 14.7609C14.7822 14.7168 14.6126 14.6793 14.4337 14.6396C14.4511 14.6302 14.4685 14.6208 14.4859 14.6113C14.4815 14.6034 14.4769 14.5954 14.4725 14.5874C14.4258 14.5971 14.3785 14.6055 14.3328 14.617C14.3166 14.621 14.3017 14.6414 14.2909 14.6386C14.2628 14.6312 14.2238 14.6188 14.2133 14.6017C14.1684 14.5286 14.1488 14.516 14.0405 14.5135C14.0313 14.5064 14.0265 14.502 14.024 14.4911C14.0084 14.4291 13.9908 14.3734 13.9718 14.3137C13.9492 14.3365 13.9266 14.3593 13.904 14.3821C13.9037 14.3819 13.8985 14.3754 13.9043 14.3669C13.9045 14.3181 13.8988 14.2779 13.8932 14.2377C13.8935 14.2299 13.8939 14.2222 13.9065 14.2112C13.9397 14.192 13.9728 14.1787 13.9779 14.1587C13.9812 14.1457 13.9439 14.1229 13.9229 14.0997C13.9147 14.0907 13.9086 14.0866 13.9023 14.0824C13.9076 14.0357 13.9129 13.989 13.9251 13.9333C13.9291 13.9155 13.9297 13.897 13.927 13.8778C13.9284 13.8658 13.9298 13.8539 13.9369 13.8313C13.9374 13.8046 13.9321 13.7887 13.9268 13.7727C13.9282 13.7454 13.932 13.7186 13.9384 13.6924C13.9771 13.5351 14.01 13.3913 14.0393 13.2468C14.0445 13.2215 14.0351 13.193 14.0322 13.166C14.0591 13.0256 14.0859 12.8853 14.1192 12.7322ZM15.4808 13.9627C15.4855 13.9626 15.4902 13.9625 15.4949 13.9625C15.5211 13.8439 15.5474 13.7253 15.5737 13.6068C15.5646 13.6051 15.5555 13.6034 15.5464 13.6017C15.5279 13.6851 15.5094 13.7685 15.4869 13.866C15.4849 13.8982 15.4828 13.9304 15.4808 13.9627ZM15.7987 12.1385C15.8003 12.1531 15.8019 12.1677 15.8035 12.1824C15.8099 12.183 15.8162 12.1836 15.8226 12.1842C15.8454 12.0813 15.8682 11.9784 15.891 11.8755C15.8802 11.8728 15.8694 11.8702 15.8586 11.8676C15.8396 11.953 15.8206 12.0384 15.7987 12.1385ZM15.8815 11.3923C15.8937 11.4159 15.9059 11.4394 15.9237 11.4516C15.9244 11.4311 15.9252 11.4105 15.9259 11.3899C15.9111 11.3907 15.8963 11.3915 15.8815 11.3923ZM15.8702 11.6788C15.8766 11.6501 15.8829 11.6213 15.8893 11.5926C15.8789 11.5905 15.8686 11.5885 15.8582 11.5864C15.8493 11.61 15.8414 11.6339 15.8346 11.6579C15.8464 11.6649 15.8583 11.6719 15.8702 11.6788ZM14.7311 14.6787C14.7486 14.6854 14.7675 14.6914 14.7871 14.6966C14.7975 14.692 14.8079 14.6875 14.8183 14.683C14.7905 14.6755 14.7626 14.668 14.7348 14.6605C14.7336 14.6665 14.7324 14.6726 14.7311 14.6787ZM12.0383 11.4743C12.0333 11.7951 12.0335 12.1022 12.0284 12.4092C12.0278 12.4432 11.999 12.4773 11.9802 12.5105C11.951 12.5619 11.9043 12.6108 11.8916 12.664C11.8712 12.7504 11.8691 12.8394 11.8659 12.9275C11.8647 12.9604 11.8817 12.9936 11.8906 13.0268C11.8907 13.0271 11.8908 13.0274 11.8909 13.0277C11.8935 13.0544 11.8961 13.0811 11.8947 13.122C11.8941 13.1484 11.896 13.1747 11.9005 13.201C11.8953 13.2271 11.8901 13.2532 11.877 13.2857C11.8676 13.304 11.8661 13.316 11.863 13.3352C11.8636 13.3712 11.8657 13.4001 11.8678 13.429C11.8662 13.436 11.8647 13.4431 11.8616 13.4613C11.8607 13.4855 11.8613 13.4985 11.858 13.5145C11.864 13.527 11.8741 13.5364 11.8841 13.5458C11.8853 13.563 11.8864 13.5802 11.8786 13.6039C11.8673 13.6275 11.8651 13.6445 11.8616 13.6672C11.8668 13.6862 11.8731 13.6994 11.8794 13.7126C11.883 13.7249 11.8866 13.7371 11.8803 13.7562C11.8743 13.791 11.8781 13.819 11.8819 13.847C11.8832 13.8585 11.8845 13.8701 11.8777 13.8868C11.8687 13.9057 11.8677 13.9195 11.8668 13.9332C11.8725 13.9543 11.8781 13.9754 11.8749 14.0043C11.8653 14.0398 11.8644 14.0676 11.8626 14.1025C11.8752 14.1557 11.8889 14.2017 11.9025 14.2477C11.8988 14.2547 11.8952 14.2616 11.8856 14.279C11.8717 14.3744 11.9049 14.4714 11.7547 14.5152C11.7515 14.5162 11.7529 14.5253 11.7521 14.5307C11.7521 14.5307 11.7496 14.531 11.7411 14.533C11.7125 14.5412 11.6753 14.5469 11.675 14.5535C11.6723 14.6112 11.6208 14.6034 11.5635 14.5952C11.535 14.5767 11.5132 14.5619 11.4856 14.545C11.4686 14.5341 11.4557 14.5227 11.4474 14.5111C11.4325 14.5027 11.4167 14.499 11.3936 14.4994C11.3809 14.5289 11.3768 14.5544 11.3701 14.5796C11.3611 14.6137 11.3502 14.6476 11.3301 14.6811C11.2761 14.6851 11.2305 14.6934 11.1862 14.6934C11.1862 14.6934 11.1862 14.6934 11.1862 14.6934C11.1823 14.6934 11.1785 14.6933 11.1747 14.6932C11.1374 14.6919 11.0847 14.6849 11.067 14.6664C10.9847 14.5802 10.8686 14.5468 10.7602 14.6021C10.6644 14.651 10.5979 14.6765 10.5579 14.5694C10.5542 14.5595 10.5275 14.5541 10.5114 14.5466C10.5241 14.5454 10.5368 14.5442 10.5494 14.543C10.5525 14.5054 10.5556 14.4678 10.5587 14.4302C10.5585 14.4069 10.5583 14.3836 10.5672 14.3525C10.5722 14.3279 10.5681 14.3111 10.5641 14.2943C10.5606 14.2492 10.5571 14.2041 10.5619 14.1466C10.5702 14.033 10.5702 13.9319 10.5702 13.8307C10.5587 13.8307 10.5472 13.8307 10.5357 13.8307C10.5303 13.8517 10.525 13.8728 10.5196 13.8938C10.5089 13.8901 10.4983 13.8864 10.4876 13.8827C10.5138 13.8495 10.5419 13.8169 10.5647 13.7826C10.5709 13.7734 10.561 13.7586 10.5585 13.7464C10.5575 13.7387 10.5566 13.7311 10.5669 13.716C10.5733 13.6368 10.5684 13.5651 10.5636 13.4935C10.5615 13.4815 10.5593 13.4695 10.5667 13.4502C10.6196 13.3717 10.5213 13.3972 10.4903 13.3768C10.4879 13.348 10.4855 13.3192 10.4927 13.2851C10.5114 13.279 10.5202 13.2783 10.5289 13.2837C10.5309 13.3074 10.5329 13.3249 10.5349 13.3424C10.542 13.3414 10.5491 13.3404 10.5562 13.3394C10.5468 13.3189 10.5375 13.2985 10.5286 13.2713C10.5287 13.1863 10.5285 13.1065 10.5303 13.0268C10.5305 13.0156 10.5308 13.0044 10.5312 12.9932C10.5341 12.9918 10.5364 12.9902 10.5377 12.9886C10.5347 12.9906 10.5317 12.9925 10.5186 12.994C10.5084 12.9936 10.4982 12.9934 10.488 12.9934C10.4866 12.9864 10.4852 12.9793 10.4966 12.9646C10.5477 12.8523 10.5544 12.7509 10.4496 12.6614C10.4468 12.6265 10.444 12.5917 10.449 12.5442C10.4569 12.0419 10.4569 11.5522 10.4569 11.0625C10.4547 11.0624 10.4526 11.0623 10.4505 11.0622C10.4505 11.2299 10.4505 11.3977 10.4505 11.5655C10.4409 11.5653 10.4313 11.5651 10.4216 11.5649C10.4198 11.5386 10.4168 11.5123 10.4166 11.486C10.4159 11.3472 10.418 11.2083 10.414 11.0696C10.4132 11.0433 10.3893 11.0174 10.3762 10.9914C10.3734 10.9517 10.3708 10.9121 10.3769 10.8603C10.3811 10.7853 10.3767 10.7224 10.3722 10.6596C10.3713 10.6414 10.3705 10.6233 10.3779 10.5948C10.3895 10.5795 10.3912 10.5735 10.3962 10.5696C10.4703 10.5118 10.5237 10.4537 10.4493 10.3716C10.4363 10.3572 10.4701 10.3194 10.485 10.2932C10.4968 10.2725 10.5237 10.253 10.523 10.2334C10.5224 10.22 10.4857 10.2074 10.4664 10.1952C10.4601 10.0974 10.4538 9.99953 10.4475 9.90169C10.4474 9.90162 10.4466 9.89848 10.455 9.90282C10.475 9.97062 10.4864 10.034 10.4978 10.0974C10.5067 10.0968 10.5156 10.0961 10.5244 10.0955C10.5244 9.98187 10.5244 9.86824 10.5244 9.75461C10.5244 9.75461 10.5289 9.75725 10.5333 9.75848C10.5576 9.75348 10.5775 9.74728 10.6073 9.7408C10.6617 9.73258 10.706 9.72459 10.7504 9.71663C10.7509 9.71659 10.7608 9.7157 10.7742 9.71907C10.9617 9.72252 11.1354 9.7225 11.3187 9.7225C11.3038 9.73517 11.2888 9.74784 11.2738 9.7605C11.2799 9.76716 11.286 9.77383 11.2921 9.78047C11.3356 9.76144 11.38 9.74337 11.4221 9.72282C11.4371 9.7155 11.4472 9.69295 11.4584 9.69338C11.4873 9.69451 11.5281 9.69803 11.5421 9.71209C11.6017 9.77231 11.6236 9.78022 11.7298 9.75968C11.7404 9.76454 11.746 9.7677 11.7508 9.77758C11.7795 9.8334 11.8087 9.88274 11.8401 9.93571C11.8573 9.90917 11.8744 9.88264 11.8916 9.8561C11.8918 9.8563 11.8984 9.86136 11.8946 9.87065C11.9049 9.91725 11.9191 9.95435 11.9333 9.99148C11.9347 9.99898 11.936 10.0065 11.9261 10.0195C11.8978 10.0449 11.8684 10.0646 11.8677 10.0847C11.8673 10.0978 11.9087 10.1117 11.9342 10.1293C11.9441 10.1361 11.951 10.1388 11.9581 10.1415C11.963 10.1871 11.9679 10.2327 11.9681 10.2884C11.968 10.3062 11.9714 10.324 11.9782 10.3417C11.9794 10.3534 11.9806 10.3651 11.9785 10.3881C11.9839 10.4136 11.9925 10.4277 12.001 10.4418C12.0057 10.4682 12.0077 10.4945 12.0072 10.5208C12.0034 10.679 12.0024 10.8229 12.005 10.9669C12.0054 10.9921 12.0208 11.0173 12.0294 11.0425C12.0336 11.1819 12.0377 11.3213 12.0383 11.4743ZM10.4428 10.5889C10.4382 10.59 10.4337 10.591 10.4291 10.5921C10.4291 10.7107 10.4291 10.8292 10.4291 10.9478C10.4384 10.9475 10.4476 10.9471 10.4569 10.9468C10.4569 10.8634 10.4568 10.78 10.4577 10.6824C10.4528 10.6512 10.4478 10.6201 10.4428 10.5889ZM10.527 12.3949C10.5222 12.3813 10.5176 12.3677 10.5128 12.3541C10.5065 12.3549 10.5001 12.3556 10.4938 12.3564C10.4938 12.4593 10.4938 12.5622 10.4938 12.6651C10.5049 12.6653 10.516 12.6656 10.5272 12.6658C10.5272 12.5804 10.5272 12.495 10.527 12.3949ZM10.6075 13.1237C10.5905 13.1038 10.5735 13.0839 10.5535 13.076C10.5573 13.0958 10.561 13.1156 10.5647 13.1353C10.579 13.1314 10.5932 13.1275 10.6075 13.1237ZM10.5566 12.8482C10.5566 12.8769 10.5566 12.9057 10.5566 12.9344C10.5672 12.9342 10.5777 12.9339 10.5883 12.9337C10.5918 12.9093 10.5944 12.8849 10.5959 12.8605C10.5828 12.8564 10.5697 12.8523 10.5566 12.8482ZM11.0198 9.74805C11.0014 9.74543 10.9816 9.74367 10.9613 9.74286C10.9522 9.74938 10.943 9.75591 10.9338 9.76244C10.9626 9.76371 10.9914 9.76499 11.0202 9.76626C11.0201 9.76019 11.02 9.75412 11.0198 9.74805ZM1.4449 6.7562C1.55596 6.64569 1.62275 6.48228 1.62139 6.32617C1.62138 6.26429 1.61188 6.20245 1.59336 6.14345C2.68747 9.65191 3.74133 13.016 4.79022 16.381C4.84353 16.5521 4.89157 16.7255 4.93724 16.8988C4.874 16.7129 4.68441 16.5914 4.50176 16.6022C4.56968 16.6058 4.63731 16.6094 4.70456 16.6126C5.30798 16.6419 5.88054 16.6885 6.50511 16.7012C7.5184 16.7217 8.56273 16.7237 9.59528 16.7269C9.98501 16.7281 10.3791 16.7108 10.7712 16.7019C11.0843 16.6993 11.3973 16.6967 11.8775 16.6981C12.1862 16.6987 12.495 16.6968 12.8033 16.6924C13.1097 16.6975 13.4161 16.7027 13.7967 16.7158C14.0114 16.7252 14.1522 16.7267 14.3772 16.7298C14.8002 16.7292 15.1389 16.7272 15.4774 16.7251C15.5601 16.7266 15.6428 16.7281 15.857 16.7312C16.1408 16.7321 16.2928 16.7315 16.4811 16.7348C16.6272 16.7288 16.7372 16.7187 16.8472 16.7087C17.0493 16.7075 17.2514 16.7065 17.5293 16.7142C17.766 16.7239 17.9467 16.7269 18.1612 16.7297C18.1307 16.7302 18.0984 16.7354 18.067 16.7462C17.959 16.7787 17.8914 16.8592 17.8621 16.9396C17.8808 16.8728 17.8979 16.8105 17.9151 16.7482C17.9554 16.6103 17.9958 16.4722 18.0699 16.2611C18.2 15.8741 18.2964 15.5601 18.3927 15.2463C18.4327 15.1169 18.4727 14.9875 18.539 14.8027C18.6151 14.5942 18.6651 14.4411 18.7149 14.2881C18.785 14.0504 18.8551 13.8126 18.9613 13.491C19.0973 13.0971 19.1973 12.7874 19.3239 12.3975C19.5019 11.7992 19.6533 11.2809 19.8046 10.7629C19.8328 10.6868 19.861 10.6107 19.9324 10.4187C20.2866 9.35684 20.6013 8.26355 20.9008 7.81991C20.9073 7.81009 20.9387 7.70744 20.9585 7.64809C20.9585 7.64809 20.962 7.64509 20.9774 7.62494C21.0338 7.5425 21.0896 7.49008 21.1136 7.41616C21.3221 6.77303 21.3433 6.87568 21.3688 6.98412C21.3298 7.19942 21.2975 7.37221 21.2635 7.56931C21.241 7.69557 21.2125 7.82666 21.1787 7.95988C21.1632 8.05738 21.1648 8.10414 21.1883 8.10659C21.3057 7.78088 21.4009 7.49682 21.4972 7.21756C21.5976 6.92627 21.6985 6.63701 21.8031 6.35103C21.8067 6.3431 21.809 6.3345 21.81 6.32559C21.8131 6.29864 21.8034 6.27003 21.7817 6.24907C21.8057 6.19071 21.7294 6.12548 21.7236 6.08564C21.7236 6.08564 21.7236 6.08564 21.7236 6.08564C21.7236 6.08181 21.7244 6.078 21.7262 6.0742C21.7346 6.05678 21.7653 6.02911 21.8388 6.03489C21.9063 6.04056 22.0405 6.09647 22.0793 6.27591C22.0825 6.29246 22.0844 6.30899 22.0853 6.32559C22.0872 6.36346 22.0831 6.40135 22.0736 6.43752C21.866 7.35477 21.8678 7.71698 22.1586 7.15161C22.4242 6.63535 22.5787 6.37073 22.2344 7.5787C22.2025 7.69066 22.2087 7.75907 22.1972 7.8477C22.1809 7.85721 22.1645 7.86672 22.1482 7.87624C22.0109 8.2954 21.8736 8.71455 21.7363 9.13371C21.6533 9.3941 21.5703 9.65448 21.4506 9.99945C21.358 10.273 21.3018 10.462 21.2456 10.6509C21.0879 11.1555 20.9303 11.66 20.7202 12.3011C20.3066 13.5676 19.9452 14.6977 19.584 15.8276C19.5948 15.8313 19.6057 15.835 19.6166 15.8387C19.6969 15.6052 19.7772 15.3718 19.8575 15.1384C19.8544 15.1829 19.8514 15.2274 19.8483 15.272C19.7047 15.6353 19.5618 15.9901 19.4172 16.3672C19.3785 16.468 19.3349 16.6365 19.2937 16.7737C19.2674 16.8592 19.2411 16.9446 19.1773 17.1104C19.1524 17.1863 19.1278 17.2617 19.1035 17.3365C18.9779 17.7434 18.5737 18.029 18.1612 18.0231C17.4941 18.0219 16.8642 18.0256 16.2344 18.0292C16.0935 18.0314 15.9525 18.0335 15.7263 18.0261C14.8062 17.9733 15.1049 18.0715 14.8652 18.1025C14.5278 18.105 14.1902 18.1074 13.7895 18.1001C13.7181 18.0815 13.7099 18.0726 13.774 18.0639C14.0514 18.0619 14.2567 18.0599 14.4617 18.0579C14.4501 18.0508 14.4385 18.0437 14.4269 18.0367C14.1869 18.046 13.9469 18.0553 13.6282 18.0642C12.4917 18.0641 11.4342 18.0644 10.3664 18.0617C10.3495 18.0587 10.3312 18.0565 10.312 18.0551C10.3352 18.0581 10.3584 18.0611 10.3756 18.0742C10.3713 18.0844 10.3689 18.0946 10.3686 18.1048C10.2859 18.1062 10.203 18.1076 10.0309 18.0962C8.71331 18.0451 7.52419 18.0384 6.47423 18.1432C6.06541 18.146 5.6568 18.1488 5.10034 18.1438C4.90065 18.1435 4.70112 18.1433 4.50176 18.143C4.02963 18.149 3.5799 17.8178 3.44518 17.3662C2.31377 13.7394 1.1968 10.1689 0.0843511 6.61614C0.05499 6.52247 0.0399816 6.42433 0.0400054 6.32617C0.0284287 5.80859 0.492654 5.34456 1.01004 5.35618C2.56377 5.35633 4.11459 5.35633 5.6654 5.35633C5.66663 5.35421 5.66786 5.3521 5.66908 5.34998C4.11607 5.34998 2.56305 5.34998 1.01004 5.34998C0.489256 5.3383 0.0221707 5.80539 0.0338425 6.32617C0.0338212 6.42495 0.0489284 6.52372 0.0784774 6.61798C0.161049 6.88158 0.24362 7.14517 0.326191 7.40877C0.316393 7.40969 0.306594 7.41062 0.296796 7.41155C0.213331 7.15047 0.128896 6.88946 0.0462997 6.62806C0.0156751 6.53055 2.20537e-06 6.42837 -4.47035e-06 6.32617C-2.64645e-05 6.2716 0.00439757 6.21635 0.0134264 6.16158C0.0847893 5.68428 0.530588 5.30834 1.01004 5.31599C2.53431 5.31562 4.0587 5.31723 5.58236 5.31345C5.89001 5.31267 6.19355 5.28876 6.4991 5.27563C6.96408 5.27292 7.42922 5.27025 8.03641 5.27633C8.91602 5.28061 9.65364 5.27614 10.3911 5.27163C10.604 5.27078 10.8169 5.26992 11.1507 5.27739C11.3304 5.28901 11.4008 5.29069 11.4461 5.29568C12.1247 5.36977 12.8054 5.42318 13.7688 5.3488C13.9374 5.33579 14.3814 5.36957 14.6886 5.38451C14.9305 5.39625 15.1602 5.42317 15.3902 5.42245C15.5468 5.42184 15.6945 5.38514 15.8375 5.36586C16.9851 5.35955 18.1327 5.35323 19.2803 5.34692C19.2811 5.3469 19.318 5.34605 19.267 5.35451C18.4718 5.37444 17.7281 5.38583 16.9844 5.39727C16.9919 5.40615 16.9995 5.41503 17.0071 5.42392C18.3398 5.42392 19.6726 5.42392 21.0054 5.42392C21.0054 5.42392 20.9744 5.42834 20.96 5.43274C21.0186 5.45707 21.0913 5.47698 21.1674 5.5068C21.2637 5.56113 21.3574 5.60552 21.4509 5.64991C21.4513 5.65033 21.4618 5.66023 21.4222 5.67367C21.3818 5.86117 21.3819 6.0349 21.3819 6.21819C21.2334 6.20323 21.0848 6.18827 20.9362 6.17331C20.8581 6.17933 20.78 6.18552 20.702 6.1916C20.9253 6.23508 21.1372 6.27944 21.3782 6.32154C21.4641 6.33653 21.7285 6.34669 21.7235 6.35783C21.7103 6.3868 21.669 6.42755 21.504 6.44153C20.7978 6.50116 20.705 6.52304 20.9459 6.62929C20.8889 6.63983 20.8518 6.64547 20.736 6.65029C20.0813 6.67896 19.5025 6.70814 18.8812 6.73958C19.1925 6.75674 19.5037 6.77389 19.815 6.79105C19.8126 6.79131 19.7533 6.79788 19.6444 6.79405C19.0977 6.80441 18.6626 6.8186 18.2271 6.83281C18.1392 6.83414 18.0513 6.83545 17.8982 6.82558C17.6002 6.79727 17.3699 6.76789 17.1339 6.76717C16.9799 6.76675 16.8176 6.80816 16.6103 6.83364C16.5305 6.84357 16.4991 6.85048 16.4677 6.85752C15.9328 6.86246 15.3977 6.8674 14.7451 6.86752C14.5359 6.86748 14.3268 6.87086 14.119 6.87764C13.982 6.87884 13.8453 6.88004 13.5747 6.87799C13.2756 6.88335 13.1102 6.89197 12.9447 6.90052C12.6361 6.90513 12.3272 6.90719 12.0182 6.90664C10.1635 6.9029 8.47503 6.90187 6.78689 6.90446C6.49057 6.90488 6.19549 6.92026 5.90001 6.92887C4.31808 6.93289 2.73623 6.93694 1.01004 6.93769C1.16813 6.93905 1.33386 6.87043 1.4449 6.7562ZM11.2194 5.34227C11.2072 5.3377 11.1949 5.33313 11.1826 5.32857C9.7919 5.32857 8.40117 5.32857 7.01045 5.32857C7.01427 5.33782 7.01809 5.34708 7.0219 5.35633C8.00002 5.35633 8.97805 5.35631 10.1237 5.35721C10.489 5.35223 10.8542 5.34725 11.2194 5.34227ZM3.3073 16.6695C3.25499 16.5187 3.20283 16.3677 3.15065 16.2171C3.14725 16.2274 3.14386 16.2378 3.14046 16.2481C3.25586 16.6165 3.37125 16.9849 3.48664 17.3532C3.61635 17.7874 4.04871 18.105 4.50176 18.099C5.17391 18.099 5.84606 18.099 6.5182 18.099C6.52086 18.0879 6.52352 18.0768 6.52618 18.0657C5.86766 18.0657 5.20913 18.0656 4.50176 18.0657C4.07043 18.0718 3.64693 17.7712 3.51844 17.3433C3.44995 17.1247 3.37973 16.9006 3.3073 16.6695ZM11.8963 17.9853C11.6635 18.0023 11.4305 18.0193 11.3375 18.0393C11.5695 18.0356 11.8014 18.0318 12.0334 18.0281C11.9877 18.0138 11.942 17.9996 11.8963 17.9853ZM8.66524 18.0362C9.00239 18.0362 9.33954 18.0362 9.67668 18.0362C9.67389 18.0256 9.67109 18.0151 9.6683 18.0045C9.38241 18.001 9.09637 17.9984 8.81026 17.9969C8.76192 18.01 8.71358 18.0231 8.66524 18.0362ZM21.0823 5.91931C21.113 5.90083 21.1336 5.88109 21.1432 5.86079C21.0667 5.85163 20.9901 5.84247 20.9135 5.83332C20.8986 5.8621 20.8837 5.89088 20.8687 5.91967C20.9399 5.91955 21.0111 5.91943 21.0823 5.91931Z" fill="#F5E4C7"></path></svg>