<svg width="19" height="19" viewBox="0 0 19 19" fill="none" xmlns="http://www.w3.org/2000/svg" class="h-full w-full"><title>close</title><path d="M5.63537 10.3081C6.73033 9.22587 7.77245 8.1833 8.82106 7.14757C8.93698 7.03319 9.08975 6.95382 9.22616 6.86525C9.43796 6.72782 9.66304 6.62153 9.85988 6.45689C10.1792 6.18974 10.484 5.89012 10.7868 5.59539C10.9011 5.48414 10.9932 5.34808 11.0953 5.22337C11.1827 5.12946 11.2699 5.03556 11.4106 4.89835C11.5008 4.80982 11.5877 4.71805 11.6712 4.62312C11.7664 4.54105 11.8617 4.45893 11.9885 4.36551C12.0626 4.31535 12.1053 4.27654 12.1743 4.21536C12.296 4.09217 12.3914 3.99154 12.4866 3.89092C12.5126 3.86897 12.5384 3.84692 12.6044 3.78892C12.6876 3.70787 12.7308 3.66318 12.7895 3.6129C12.8241 3.56294 12.8431 3.51826 12.8622 3.47372C12.9192 3.4137 12.9763 3.35389 13.0667 3.28336C13.1609 3.21776 13.2217 3.16273 13.3032 3.08995C13.3608 3.01917 13.3977 2.96629 13.4346 2.91333C13.4716 2.86715 13.5086 2.82097 13.5814 2.76429C13.7072 2.65384 13.7974 2.55393 13.8874 2.45406C13.925 2.41325 13.9626 2.37238 14.028 2.32426C14.1037 2.27159 14.1515 2.22618 14.1992 2.18079C14.2637 2.10188 14.3283 2.02305 14.4303 1.92903C14.5631 1.82074 14.6584 1.72771 14.7793 1.6114C14.9438 1.41469 15.0827 1.24117 15.2214 1.06764C15.2496 1.04886 15.2777 1.0301 15.349 0.983001C15.6907 0.676888 15.9775 0.305555 16.3173 0.348004C16.3247 0.348767 16.354 0.315969 16.3731 0.298857C16.3731 0.298855 16.3774 0.300911 16.3951 0.304807C16.4592 0.313524 16.526 0.341506 16.5488 0.319412C16.7479 0.12722 16.787 0.219164 16.8324 0.319782C16.8058 0.418744 16.783 0.496983 16.7609 0.589489C16.7458 0.647964 16.7235 0.702919 16.6944 0.753275C16.6851 0.800457 16.6924 0.833256 16.7233 0.861302C16.8395 0.777276 16.9315 0.69593 17.0254 0.618905C17.1527 0.514643 17.2814 0.413553 17.4209 0.325353C17.503 0.380635 17.5893 0.410441 17.6457 0.466895C17.6457 0.466895 17.6457 0.466895 17.6457 0.466895C17.6506 0.471761 17.6552 0.476825 17.6596 0.482121C17.7028 0.534013 17.7463 0.624686 17.7058 0.710251C17.5178 1.1075 17.5525 1.36848 17.8782 1.31874C18.1658 1.27493 18.337 1.27305 18.0246 1.68725C17.9956 1.72561 18.0114 1.77798 18.0064 1.82389C17.9862 1.8118 17.966 1.79972 17.9458 1.78764C17.8142 1.91133 17.6827 2.03501 17.5511 2.1587C17.4723 2.2381 17.3935 2.31744 17.2765 2.41173C17.1866 2.48901 17.1347 2.55117 17.0828 2.61332C16.9343 2.77075 16.7858 2.92816 16.5844 3.11725C16.1883 3.49219 15.845 3.83555 15.5017 4.17884C15.5163 4.19352 15.5309 4.2082 15.5454 4.22288C15.6237 4.15833 15.702 4.09377 15.7803 4.02921C15.7813 4.05531 15.7823 4.08141 15.7833 4.10751C15.6372 4.18703 15.4911 4.26168 15.3453 4.34922C15.3063 4.37261 15.2685 4.43541 15.2303 4.48009C15.2056 4.50719 15.181 4.53429 15.1166 4.5725C14.8397 4.83303 14.6026 5.08246 14.3656 5.33175C14.3276 5.37529 14.2895 5.41879 14.2146 5.47481C13.8811 5.67387 14.0926 5.71246 14.0627 5.82132C13.9682 5.92203 13.8736 6.02278 13.7483 6.12945C13.704 6.12643 13.6904 6.11757 13.6978 6.08791C13.7755 6.00509 13.8324 5.94313 13.8891 5.88128C13.8768 5.87562 13.8644 5.86997 13.8521 5.86431C13.7945 5.94564 13.7369 6.02698 13.656 6.13056C13.327 6.45927 13.0213 6.76561 12.7089 7.07115C12.7002 7.07225 12.692 7.0747 12.6847 7.0785C12.6953 7.07561 12.7059 7.07277 12.7275 7.0845C12.7392 7.09866 12.7515 7.11236 12.7645 7.12545C12.7423 7.15114 12.72 7.17685 12.6557 7.21216C12.2094 7.52844 11.8568 7.86399 11.6863 8.30122C11.5716 8.42312 11.457 8.54495 11.2895 8.69953C9.5746 10.3945 7.91243 12.0567 6.25028 13.7188C6.25262 13.7219 6.25496 13.7249 6.2573 13.728C6.82673 13.1586 7.39617 12.5891 7.9656 12.0197C7.97726 12.0325 7.98892 12.0454 8.00059 12.0582C7.91356 12.1499 7.82798 12.2431 7.73888 12.3327C7.26864 12.8047 6.79473 13.2733 6.32889 13.7494C6.24086 13.8394 6.18345 13.9577 6.11174 14.0628C5.98064 14.2008 5.84943 14.3388 5.66598 14.5068C5.406 14.7559 5.19823 14.975 4.99059 15.1942C4.93003 15.2569 4.86952 15.3195 4.76343 15.4066C4.69664 15.4438 4.67413 15.4621 4.65467 15.4688C4.36401 15.5709 4.09904 15.6999 3.91492 16.0734C3.88269 16.1387 3.71123 16.2242 3.6033 16.2941C3.51836 16.3491 3.41762 16.3814 3.352 16.4488C3.30744 16.4949 3.31142 16.5844 3.29457 16.6503C2.97052 16.9904 2.64647 17.3305 2.32242 17.6707C2.3222 17.6709 2.31263 17.6827 2.31661 17.6572C2.52135 17.4017 2.72208 17.172 2.92272 16.9422C2.90923 16.9331 2.89573 16.924 2.88224 16.9148C2.49656 17.3005 2.11089 17.6862 1.72522 18.0719C1.72522 18.0719 1.72854 18.0573 1.72713 18.0475C1.67918 18.0335 1.6328 18.0292 1.57285 18.0132C1.47582 17.972 1.39219 17.9426 1.30866 17.9131C1.308 17.9127 1.29236 17.9032 1.2867 17.8746C1.05975 17.6242 0.838591 17.4032 0.605309 17.1699C0.667341 17.1459 0.729373 17.122 0.791405 17.098C0.806345 17.0678 0.82109 17.0373 0.835893 17.007C0.715956 17.0162 0.598154 17.0211 0.474832 17.0373C0.430892 17.043 0.341456 17.1066 0.328728 17.091C0.295675 17.0503 0.255749 16.9865 0.2857 16.9209C0.414176 16.6407 0.413185 16.586 0.208248 16.5204C0.211317 16.4905 0.214878 16.4726 0.242248 16.433C0.39522 16.207 0.525574 16.0024 0.665322 15.7826C0.55342 15.8508 0.441518 15.9191 0.329616 15.9873C0.329951 15.9863 0.338755 15.9608 0.375161 15.9341C0.520165 15.7627 0.628028 15.6188 0.735942 15.4747C0.759703 15.4475 0.783478 15.4204 0.840326 15.3887C0.962605 15.3385 1.06663 15.3092 1.13586 15.2419C1.18094 15.1978 1.17521 15.0982 1.20278 15.0057C1.21321 14.97 1.21352 14.9521 1.21364 14.9341C1.36215 14.773 1.51069 14.6119 1.6994 14.4229C1.75998 14.3624 1.81617 14.2976 1.8677 14.2288C1.9058 14.1876 1.94384 14.1466 2.02475 14.0709C2.10447 13.9775 2.14138 13.9186 2.17838 13.8599C2.26181 13.7647 2.3486 13.6727 2.43872 13.584C2.98016 13.052 3.47008 12.5647 3.9553 12.0729C4.04051 11.9866 4.10633 11.8817 4.18087 11.7852C4.64882 11.3067 5.1167 10.8282 5.63537 10.3081ZM4.66096 15.3439C4.67032 15.3462 4.67969 15.3485 4.68906 15.3507C5.0915 14.9483 5.49394 14.5459 5.89639 14.1434C5.8835 14.1327 5.87062 14.1221 5.85774 14.1114C5.57469 14.3944 5.2917 14.6775 4.95902 15.0079C4.85966 15.1199 4.76031 15.2319 4.66096 15.3439ZM10.6834 9.10709C10.6433 9.15941 10.6031 9.21153 10.563 9.26371C10.5736 9.26921 10.5843 9.2747 10.5949 9.2802C10.9442 8.93089 11.2935 8.58158 11.6428 8.23226C11.6294 8.21734 11.6161 8.20242 11.6027 8.18751C11.3128 8.4774 11.0228 8.76721 10.6834 9.10709ZM13.0544 6.53123C13.0086 6.62024 12.9629 6.70931 12.9614 6.76167C13.0238 6.68978 13.0861 6.6179 13.1485 6.54601C13.1171 6.54109 13.0858 6.53616 13.0544 6.53123ZM12.1842 7.531C12.2817 7.43344 12.3793 7.33587 12.4769 7.23831C12.4626 7.22569 12.4484 7.21308 12.4342 7.20046C12.3469 7.27864 12.2609 7.35817 12.1761 7.43902C12.1788 7.46968 12.1815 7.50034 12.1842 7.531ZM1.07242 17.4636C1.08705 17.496 1.10622 17.5271 1.12928 17.5557C1.16309 17.5452 1.1969 17.5347 1.23071 17.5242C1.1984 17.4832 1.16608 17.4423 1.13377 17.4013C1.11332 17.4221 1.09287 17.4428 1.07242 17.4636ZM7.76378 5.42713C8.84601 6.52208 9.88859 7.56421 10.9243 8.61281C11.0387 8.72873 11.1181 8.88151 11.2066 9.01791C11.3441 9.22971 11.4504 9.45479 11.615 9.65163C11.8821 9.97091 12.1818 10.2757 12.4765 10.5786C12.5877 10.6929 12.7238 10.7849 12.8485 10.8871C12.9424 10.9744 13.0363 11.0616 13.1735 11.2024C13.2621 11.2925 13.3538 11.3794 13.4488 11.4629C13.5308 11.5582 13.613 11.6535 13.7064 11.7803C13.7565 11.8544 13.7953 11.8971 13.8565 11.9661C13.9797 12.0877 14.0803 12.1831 14.181 12.2784C14.2029 12.3043 14.225 12.3301 14.283 12.3961C14.364 12.4793 14.4087 12.5226 14.459 12.5813C14.5089 12.6159 14.5536 12.6349 14.5982 12.654C14.6582 12.7109 14.718 12.7681 14.7885 12.8584C14.8541 12.9527 14.9092 13.0134 14.9819 13.0949C15.0527 13.1525 15.1056 13.1895 15.1586 13.2263C15.2047 13.2633 15.2509 13.3003 15.3076 13.3731C15.418 13.4989 15.518 13.5891 15.6178 13.6792C15.6586 13.7168 15.6995 13.7543 15.7476 13.8197C15.8003 13.8954 15.8457 13.9432 15.8911 13.9909C15.97 14.0554 16.0488 14.12 16.1429 14.222C16.2511 14.3548 16.3442 14.4502 16.4605 14.5711C16.6572 14.7356 16.8307 14.8745 17.0042 15.0132C17.023 15.0413 17.0418 15.0695 17.0889 15.1408C17.395 15.4825 17.7663 15.7693 17.7239 16.1091C17.7231 16.1164 17.7559 16.1457 17.773 16.1648C17.773 16.1648 17.771 16.1692 17.7671 16.1869C17.7584 16.251 17.7304 16.3177 17.7525 16.3406C17.9447 16.5397 17.8527 16.5788 17.7521 16.6241C17.6531 16.5975 17.5749 16.5748 17.4824 16.5527C17.4239 16.5376 17.369 16.5152 17.3186 16.4862C17.2714 16.4769 17.2386 16.4842 17.2106 16.515C17.2946 16.6313 17.376 16.7233 17.453 16.8172C17.5572 16.9444 17.6583 17.0731 17.7465 17.2127C17.6912 17.2948 17.6614 17.381 17.605 17.4375C17.605 17.4375 17.605 17.4375 17.605 17.4375C17.6001 17.4423 17.5951 17.447 17.5898 17.4514C17.5379 17.4945 17.4472 17.538 17.3616 17.4976C16.9644 17.3096 16.7034 17.3442 16.7531 17.6699C16.797 17.9576 16.7988 18.1288 16.3846 17.8164C16.3463 17.7874 16.2939 17.8032 16.248 17.7982C16.2601 17.778 16.2722 17.7578 16.2842 17.7375C16.1606 17.606 16.0369 17.4744 15.9132 17.3428C15.8338 17.264 15.7544 17.1852 15.6602 17.0682C15.5829 16.9784 15.5207 16.9265 15.4586 16.8746C15.3011 16.726 15.1437 16.5776 14.9546 16.3762C14.5797 15.9801 14.2363 15.6368 13.893 15.2935C13.8784 15.3081 13.8637 15.3226 13.849 15.3372C13.9136 15.4155 13.9781 15.4938 14.0427 15.572C14.0166 15.573 13.9905 15.5741 13.9644 15.5751C13.8849 15.429 13.8102 15.2828 13.7227 15.137C13.6993 15.098 13.6365 15.0603 13.5918 15.022C13.5647 14.9974 13.5376 14.9728 13.4994 14.9084C13.2388 14.6314 12.9894 14.3944 12.7401 14.1573C12.6966 14.1193 12.6531 14.0812 12.5971 14.0064C12.398 13.6729 12.3594 13.8844 12.2506 13.8545C12.1499 13.7599 12.0491 13.6653 11.9424 13.5401C11.9455 13.4957 11.9543 13.4821 11.984 13.4895C12.0668 13.5673 12.1288 13.6241 12.1906 13.6809C12.1963 13.6685 12.2019 13.6562 12.2076 13.6438C12.1262 13.5862 12.0449 13.5287 11.9413 13.4478C11.6126 13.1188 11.3063 12.813 11.0007 12.5006C10.9996 12.4919 10.9972 12.4838 10.9934 12.4765C10.9963 12.487 10.9991 12.4976 10.9874 12.5193C10.9732 12.531 10.9595 12.5433 10.9464 12.5562C10.9207 12.534 10.895 12.5118 10.8597 12.4475C10.5434 12.0012 10.2079 11.6485 9.77067 11.4781C9.64876 11.3634 9.52694 11.2487 9.37235 11.0813C7.67738 9.36635 6.01519 7.70418 4.35304 6.04203C4.34999 6.04437 4.34694 6.04671 4.34389 6.04905C4.91332 6.61848 5.48276 7.18792 6.05219 7.75735C6.03935 7.76902 6.0265 7.78068 6.01366 7.79234C5.92203 7.70531 5.82879 7.61974 5.73923 7.53064C5.26715 7.06039 4.79861 6.58648 4.32249 6.12064C4.23247 6.03261 4.1142 5.9752 4.00907 5.90349C3.87106 5.77239 3.73307 5.64118 3.5651 5.45773C3.31601 5.19775 3.09687 4.98998 2.87773 4.78234C2.81503 4.72178 2.75234 4.66128 2.66524 4.55518C2.62804 4.48839 2.60979 4.46588 2.60306 4.44642C2.50099 4.15576 2.37198 3.89079 1.99852 3.70667C1.93317 3.67444 1.84769 3.50298 1.77779 3.39506C1.72274 3.31011 1.69052 3.20937 1.62306 3.14375C1.57697 3.09919 1.48752 3.10318 1.42159 3.08633C1.08147 2.76227 0.741346 2.43822 0.401222 2.11417C0.400959 2.11396 0.389216 2.10438 0.414727 2.10836C0.670222 2.3131 0.899924 2.51383 1.1297 2.71447C1.13882 2.70098 1.14793 2.68748 1.15705 2.67399C0.771374 2.28832 0.3857 1.90264 2.6226e-05 1.51697C2.61664e-05 1.51697 0.0146178 1.52029 0.0243962 1.51888C0.0383982 1.47093 0.0426896 1.42455 0.0586375 1.3646C0.0999074 1.26757 0.129286 1.18394 0.158755 1.10041C0.159149 1.09975 0.168732 1.08411 0.197288 1.07845C0.447635 0.8515 0.668718 0.630344 0.902 0.397061C0.92595 0.459093 0.949899 0.521126 0.973848 0.583158C1.00412 0.598098 1.03462 0.612842 1.0649 0.627645C1.05565 0.507709 1.05077 0.389907 1.03461 0.266584C1.02885 0.222645 0.965254 0.133208 0.980891 0.12048C1.02158 0.0874274 1.0854 0.0475012 1.15094 0.0774524C1.43121 0.205929 1.48591 0.204937 1.55144 2.98023e-07C1.58134 0.00306913 1.59926 0.00663042 1.6389 0.0340001C1.86485 0.186972 2.06948 0.317326 2.28927 0.457074C2.22104 0.345172 2.15281 0.23327 2.08458 0.121368C2.08559 0.121704 2.11111 0.130507 2.13776 0.166913C2.30914 0.311917 2.45312 0.41978 2.59722 0.527694C2.62435 0.551455 2.65147 0.57523 2.68319 0.632079C2.7334 0.754357 2.76265 0.858384 2.83003 0.927611C2.87404 0.972695 2.97372 0.966959 3.06616 0.994533C3.10187 1.00497 3.11976 1.00527 3.13781 1.00539C3.29889 1.1539 3.46001 1.30245 3.64902 1.49115C3.70951 1.55174 3.7743 1.60793 3.84308 1.65945C3.88425 1.69756 3.92533 1.73559 4.00103 1.8165C4.09439 1.89622 4.15324 1.93314 4.212 1.97013C4.30716 2.05356 4.3992 2.14035 4.48791 2.23047C5.01986 2.77192 5.50715 3.26184 5.99895 3.74705C6.08524 3.83226 6.1902 3.89808 6.28667 3.97262C6.76519 4.44057 7.24373 4.90845 7.76378 5.42713ZM2.72794 4.45271C2.72567 4.46208 2.72341 4.47144 2.72115 4.48081C3.12359 4.88325 3.52603 5.2857 3.92848 5.68814C3.93915 5.67526 3.94983 5.66237 3.9605 5.64949C3.67746 5.36644 3.39441 5.08345 3.06403 4.75077C2.952 4.65142 2.83997 4.55206 2.72794 4.45271ZM8.96479 10.4751C8.91247 10.4351 8.86035 10.3948 8.80817 10.3548C8.80268 10.3654 8.79718 10.376 8.79168 10.3866C9.141 10.7359 9.49031 11.0853 9.83962 11.4346C9.85454 11.4212 9.86946 11.4078 9.88438 11.3944C9.59449 11.1045 9.30467 10.8146 8.96479 10.4751ZM11.5406 12.8462C11.4516 12.8004 11.3626 12.7546 11.3102 12.7532C11.3821 12.8155 11.454 12.8779 11.5259 12.9402C11.5308 12.9089 11.5357 12.8775 11.5406 12.8462ZM10.5409 11.9759C10.6384 12.0735 10.736 12.171 10.8336 12.2686C10.8462 12.2544 10.8588 12.2401 10.8714 12.2259C10.7932 12.1386 10.7137 12.0526 10.6329 11.9679C10.6022 11.9706 10.5715 11.9732 10.5409 11.9759ZM0.608308 0.864176C0.575881 0.878801 0.544799 0.897967 0.516177 0.921032C0.526678 0.954842 0.53718 0.988653 0.547682 1.02246C0.588638 0.990149 0.629594 0.957835 0.670551 0.92552C0.649803 0.905072 0.629056 0.884624 0.608308 0.864176Z" fill="currentColor"></path></svg>