<svg data-hamburger-icon="true" width="25" height="12" viewBox="0 0 25 12" fill="none" xmlns="http://www.w3.org/2000/svg" style="will-change:transform"><title>menu</title><path d="M8.68239 0C10.246 0.00749886 11.7431 0.00723374 13.2401 0.0148231C13.4055 0.0157266 13.5722 0.0589844 13.7337 0.0871738C13.9845 0.130994 14.2225 0.20099 14.4821 0.219964C14.9033 0.250681 15.3374 0.253733 15.7665 0.258522C15.9285 0.260325 16.0923 0.234393 16.2553 0.221111C16.3854 0.217226 16.5155 0.213298 16.7151 0.215376C16.8434 0.216326 16.9718 0.21346 17.0999 0.206729C17.2273 0.214499 17.3547 0.222239 17.5128 0.241934C17.6021 0.256028 17.6606 0.258325 17.7541 0.262933C17.93 0.262029 18.0707 0.258948 18.2114 0.255786C18.2458 0.258135 18.2802 0.260354 18.3692 0.265051C18.4872 0.266316 18.5503 0.265464 18.6286 0.270433C18.6893 0.261398 18.7351 0.246254 18.7808 0.231258C18.8648 0.229451 18.9488 0.227898 19.0643 0.239552C19.1791 0.256445 19.2622 0.259813 19.3731 0.264962C19.4653 0.257192 19.5298 0.247803 19.5943 0.238316C19.654 0.232895 19.7138 0.227506 19.8067 0.236993C19.9764 0.246025 20.1129 0.240304 20.2493 0.234522C20.3056 0.232625 20.3619 0.230669 20.4435 0.240875C20.5357 0.254425 20.6026 0.255843 20.6695 0.257198C20.7724 0.248705 20.8755 0.240324 21.0162 0.245022C21.1894 0.259478 21.3247 0.26084 21.495 0.263551C21.7545 0.244578 21.9788 0.22415 22.2031 0.203641C22.2367 0.209152 22.2704 0.21469 22.3555 0.228964C22.8207 0.249925 23.2934 0.200126 23.5069 0.425369C23.5116 0.430132 23.5563 0.428082 23.5823 0.429252C23.5823 0.429252 23.5839 0.433013 23.5938 0.445751C23.6336 0.488664 23.6614 0.544464 23.6937 0.544925C23.9747 0.54899 23.9368 0.626204 23.8971 0.712214C23.8069 0.754852 23.7344 0.787572 23.6521 0.829034C23.5992 0.854598 23.5437 0.873825 23.4867 0.886385C23.4461 0.908701 23.4278 0.932335 23.4298 0.967029C23.5736 0.986002 23.6981 0.992296 23.8209 1.00223C23.9872 1.01579 24.1522 1.03205 24.3158 1.06232C24.335 1.14325 24.3755 1.21164 24.3755 1.27817C24.3755 1.27817 24.3755 1.27817 24.3755 1.27817C24.3755 1.28391 24.3752 1.28963 24.3746 1.29534C24.3683 1.35136 24.3345 1.43042 24.2439 1.45698C23.8236 1.58031 23.6611 1.75449 23.9307 1.91712C24.1687 2.06077 24.2931 2.16056 23.7712 2.22055C23.7229 2.22608 23.6966 2.26622 23.66 2.29034C23.6542 2.27131 23.6484 2.25228 23.6425 2.23326C23.4592 2.22861 23.2759 2.22396 23.0926 2.21931C22.979 2.21968 22.8654 2.21998 22.7137 2.20661C22.5936 2.1992 22.5117 2.20523 22.4298 2.21129C22.2101 2.21653 21.9904 2.22178 21.71 2.21455C21.1562 2.20208 20.6631 2.20211 20.17 2.20211C20.1699 2.21934 20.1698 2.23658 20.1697 2.25381C20.2723 2.2619 20.3749 2.26999 20.4775 2.27808C20.4595 2.29405 20.4415 2.31002 20.4234 2.32599C20.2614 2.28678 20.1029 2.24465 19.9353 2.21031C19.8904 2.2011 19.8182 2.21587 19.7587 2.21967C19.7215 2.22111 19.6844 2.22259 19.6107 2.20714C19.2247 2.19747 18.8753 2.20476 18.5261 2.21199C18.4675 2.21524 18.4089 2.21843 18.3149 2.20732C17.9324 2.1281 18.0566 2.27548 17.957 2.32202C17.8167 2.32563 17.6764 2.32924 17.5099 2.31831C17.4802 2.2904 17.4768 2.27715 17.5034 2.26405C17.6187 2.26107 17.704 2.25803 17.7892 2.25505C17.7844 2.24443 17.7796 2.23381 17.7748 2.2232C17.675 2.2372 17.5753 2.25121 17.4428 2.26458C16.9704 2.2644 16.5309 2.26476 16.0871 2.2607C16.08 2.25624 16.0724 2.25288 16.0644 2.25081C16.0741 2.25533 16.0837 2.25989 16.0909 2.27958C16.0891 2.29479 16.0881 2.31013 16.088 2.32546C16.0536 2.32754 16.0191 2.32955 15.9476 2.31249C15.4 2.23587 14.9057 2.22578 14.4693 2.38299C14.2994 2.38723 14.1295 2.39146 13.8982 2.38387C11.4494 2.37212 9.06191 2.37213 6.6745 2.37213C6.67399 2.37531 6.67347 2.37849 6.67297 2.38166C7.49087 2.38166 8.30877 2.38166 9.12668 2.38166C9.12583 2.3961 9.12498 2.41054 9.12413 2.42498C8.99582 2.4277 8.8674 2.43221 8.73909 2.43248C8.06234 2.43357 7.3855 2.4304 6.70901 2.43646C6.58114 2.43763 6.45498 2.47349 6.32797 2.49319C6.13471 2.49725 5.94137 2.50126 5.689 2.49213C5.32339 2.48572 5.0168 2.49241 4.7103 2.49919C4.62177 2.50045 4.5333 2.50174 4.39456 2.49054C4.31988 2.47311 4.2906 2.4706 4.27179 2.4631C3.98974 2.35197 3.7068 2.27186 3.30636 2.38343C3.23628 2.40294 3.05176 2.35228 2.92405 2.32987C2.82351 2.31225 2.72802 2.27188 2.63244 2.27296C2.56734 2.27386 2.50596 2.32892 2.44651 2.35784C1.96952 2.36731 1.49253 2.37678 1.01554 2.38625C1.0152 2.38628 0.999884 2.38756 1.02106 2.37487C1.3516 2.34497 1.66071 2.32789 1.96983 2.31072C1.96669 2.2974 1.96354 2.28408 1.9604 2.27075C1.40644 2.27075 0.852478 2.27075 0.298518 2.27075C0.298518 2.27075 0.311385 2.26411 0.317392 2.25752C0.293016 2.22102 0.262787 2.19116 0.231186 2.14643C0.191141 2.06494 0.152181 1.99835 0.113355 1.93176C0.11316 1.93114 0.108813 1.91628 0.125257 1.89612C0.142058 1.61487 0.142005 1.35428 0.142005 1.07935C0.203754 1.10179 0.265504 1.12423 0.327253 1.14667C0.359724 1.13764 0.392213 1.12836 0.424596 1.11923C0.331814 1.05401 0.243712 0.987467 0.143535 0.924325C0.107842 0.901828 -0.00205995 0.8866 2.93872e-05 0.869885C0.00551391 0.826433 0.0226754 0.765298 0.0912508 0.74433C0.384803 0.654884 0.423372 0.622069 0.323258 0.462692C0.346932 0.446883 0.362363 0.43842 0.410483 0.431193C0.682619 0.388186 0.923195 0.344418 1.1814 0.297256C1.05204 0.271521 0.922672 0.245787 0.793307 0.220052C0.79427 0.219657 0.818923 0.209805 0.86421 0.215552C1.09143 0.200012 1.27229 0.17873 1.45328 0.157407C1.48983 0.15542 1.52638 0.153453 1.58999 0.16826C1.71387 0.210724 1.80958 0.25479 1.90769 0.255875C1.97167 0.256507 2.03914 0.19439 2.12533 0.156172C2.15847 0.141275 2.17153 0.130913 2.18458 0.120349C2.40692 0.112941 2.62932 0.10553 2.90058 0.10535C2.98753 0.105408 3.07442 0.10034 3.16081 0.0901737C3.21775 0.0883667 3.27456 0.0865724 3.38704 0.0896443C3.51134 0.0816033 3.58012 0.0686802 3.64889 0.0558512C3.77715 0.048941 3.90558 0.0458472 4.03401 0.0466751C4.80488 0.0522767 5.50669 0.0538247 6.20836 0.0499396C6.33152 0.0493035 6.45417 0.0262426 6.57698 0.0133231C7.25671 0.00708902 7.93641 0.000813127 8.68239 0ZM4.36599 2.39322C4.37109 2.40007 4.37619 2.40693 4.38129 2.41378C4.95934 2.41378 5.53739 2.41378 6.11544 2.41378C6.11385 2.3999 6.11226 2.38602 6.11067 2.37213C5.70412 2.37213 5.29761 2.37217 4.82142 2.37081C4.66961 2.37828 4.5178 2.38575 4.36599 2.39322ZM13.1703 2.26687C13.1039 2.2741 13.0376 2.28109 12.9713 2.28822C12.975 2.29772 12.9787 2.30722 12.9824 2.31672C13.4841 2.31672 13.9858 2.31672 14.4876 2.31672C14.4887 2.30005 14.4898 2.28337 14.4909 2.2667C14.0745 2.2667 13.6581 2.2666 13.1703 2.26687ZM16.723 2.14617C16.6262 2.17165 16.5294 2.19717 16.4907 2.22717C16.5871 2.22155 16.6835 2.21593 16.7799 2.21031C16.7609 2.18893 16.742 2.16755 16.723 2.14617ZM15.38 2.22249C15.5201 2.22249 15.6602 2.22249 15.8004 2.22249C15.7992 2.20667 15.7981 2.19085 15.7969 2.17502C15.6781 2.16965 15.5592 2.16583 15.4403 2.16355C15.4202 2.1832 15.4001 2.20284 15.38 2.22249ZM0.266552 1.52766C0.253767 1.55538 0.245209 1.58499 0.241218 1.61545C0.273042 1.62919 0.304866 1.64292 0.33669 1.65666C0.342896 1.61348 0.349102 1.57031 0.355308 1.52713C0.325723 1.52731 0.296138 1.52748 0.266552 1.52766ZM15.6932 11.1159C14.1296 11.1084 12.6325 11.1087 11.1356 11.1011C10.9702 11.1002 10.8034 11.057 10.6419 11.0288C10.3911 10.9849 10.1531 10.915 9.89348 10.896C9.47231 10.8653 9.03824 10.8622 8.60907 10.8574C8.44707 10.8556 8.28326 10.8815 8.12031 10.8948C7.99017 10.8987 7.86008 10.9026 7.66046 10.9006C7.53216 10.8996 7.40383 10.9025 7.27569 10.9092C7.14832 10.9014 7.02094 10.8937 6.86277 10.874C6.77353 10.8599 6.71499 10.8576 6.62149 10.853C6.44565 10.8539 6.30487 10.857 6.1642 10.8602C6.12982 10.8578 6.09543 10.8556 6.00641 10.8509C5.88845 10.8496 5.82529 10.8505 5.74703 10.8455C5.68627 10.8545 5.64055 10.8697 5.59485 10.8847C5.51085 10.8865 5.42683 10.888 5.31132 10.8764C5.19651 10.8595 5.11336 10.8561 5.00255 10.851C4.91036 10.8587 4.84584 10.8681 4.78134 10.8776C4.72162 10.883 4.66185 10.8884 4.56888 10.8789C4.39923 10.8699 4.2627 10.8756 4.12629 10.8814C4.06998 10.8833 4.01366 10.8853 3.93212 10.8751C3.83994 10.8615 3.773 10.8601 3.70615 10.8587C3.60316 10.8672 3.50014 10.8756 3.35937 10.8709C3.18622 10.8565 3.05093 10.8551 2.88057 10.8524C2.62114 10.8714 2.39681 10.8918 2.17256 10.9123C2.13887 10.9068 2.10518 10.9013 2.02012 10.887C1.5549 10.866 1.08222 10.9158 0.868676 10.6906C0.863974 10.6858 0.819357 10.6879 0.793354 10.6867C0.793357 10.6867 0.791714 10.6829 0.781792 10.6702C0.742015 10.6273 0.714193 10.5715 0.681899 10.571C0.400894 10.567 0.438846 10.4897 0.478542 10.4037C0.568715 10.3611 0.64122 10.3284 0.723557 10.2869C0.77639 10.2613 0.831889 10.2421 0.888912 10.2296C0.929479 10.2072 0.947792 10.1836 0.945787 10.1489C0.801973 10.1299 0.677461 10.1236 0.554716 10.1137C0.388442 10.1002 0.223415 10.0839 0.0598434 10.0536C0.0406067 9.97269 6.9961e-05 9.9043 6.83467e-05 9.83777C6.83467e-05 9.83777 6.83467e-05 9.83777 6.83467e-05 9.83777C6.75395e-05 9.83203 0.000368935 9.82631 0.00101128 9.8206C0.00728004 9.76459 0.0411551 9.68552 0.131679 9.65896C0.551971 9.53563 0.714522 9.36145 0.444877 9.19882C0.206868 9.05517 0.0825552 8.95538 0.604365 8.89539C0.652731 8.88986 0.679026 8.84972 0.715564 8.8256C0.721403 8.84463 0.727241 8.86366 0.733077 8.88269C0.9164 8.88733 1.09972 8.89198 1.28304 8.89663C1.39664 8.89627 1.51023 8.89596 1.66196 8.90933C1.78199 8.91674 1.86391 8.91071 1.94582 8.90466C2.16555 8.89942 2.38524 8.89416 2.66565 8.90139C3.21939 8.91386 3.71254 8.91383 4.20561 8.91383C4.2057 8.8966 4.20578 8.87936 4.20587 8.86213C4.10328 8.85404 4.0007 8.84595 3.89811 8.83786C3.91614 8.82189 3.93416 8.80592 3.95218 8.78995C4.1142 8.82917 4.27276 8.87129 4.44034 8.90563C4.48518 8.91484 4.55737 8.90007 4.61692 8.89627C4.65408 8.89483 4.69121 8.89336 4.76493 8.9088C5.15092 8.91847 5.50031 8.91118 5.84955 8.90395C5.90813 8.9007 5.96674 8.89752 6.06073 8.90863C6.44319 8.98785 6.31902 8.84047 6.41865 8.79392C6.5589 8.79031 6.6992 8.7867 6.86574 8.79763C6.89542 8.82554 6.89884 8.83879 6.8722 8.85189C6.75689 8.85487 6.67159 8.85791 6.58638 8.86089C6.5912 8.87151 6.59601 8.88213 6.60084 8.89275C6.70059 8.87874 6.80034 8.86473 6.93282 8.85136C7.40519 8.85154 7.84475 8.85118 8.28856 8.85525C8.29557 8.8597 8.30319 8.86306 8.31117 8.86513C8.30152 8.86061 8.29187 8.85605 8.28473 8.83636C8.28652 8.82115 8.2875 8.80581 8.28762 8.79048C8.322 8.78841 8.35646 8.78639 8.42798 8.80345C8.97565 8.88007 9.4699 8.89016 9.90631 8.73296C10.0762 8.72871 10.2461 8.72449 10.4774 8.73207C12.9262 8.74382 15.3137 8.74381 17.7011 8.74381C17.7016 8.74063 17.7021 8.73746 17.7026 8.73428C16.8847 8.73428 16.0668 8.73428 15.2489 8.73428C15.2498 8.71984 15.2506 8.7054 15.2515 8.69096C15.3798 8.68825 15.5082 8.68373 15.6365 8.68346C16.3133 8.68237 16.9901 8.68554 17.6666 8.67949C17.7945 8.67831 17.9206 8.64245 18.0476 8.62275C18.2409 8.61869 18.4342 8.61469 18.6866 8.62381C19.0522 8.63023 19.3588 8.62353 19.6653 8.61675C19.7538 8.61549 19.8423 8.6142 19.9811 8.6254C20.0557 8.64283 20.085 8.64534 20.1038 8.65284C20.3859 8.76397 20.6688 8.84408 21.0693 8.73251C21.1393 8.713 21.3239 8.76366 21.4516 8.78607C21.5521 8.80369 21.6476 8.84406 21.7432 8.84298C21.8083 8.84208 21.8696 8.78702 21.9291 8.7581C22.4061 8.74863 22.8831 8.73916 23.3601 8.72969C23.3604 8.72966 23.3757 8.72838 23.3545 8.74107C23.024 8.77098 22.7149 8.78805 22.4058 8.80522C22.4089 8.81854 22.4121 8.83186 22.4152 8.84519C22.9692 8.84519 23.5231 8.84519 24.0771 8.84519C24.0771 8.84519 24.0642 8.85183 24.0582 8.85842C24.0826 8.89492 24.1128 8.92478 24.1444 8.96951C24.1845 9.051 24.2234 9.11759 24.2623 9.18418C24.2624 9.1848 24.2668 9.19966 24.2504 9.21982C24.2336 9.50107 24.2336 9.76167 24.2336 10.0366C24.1719 10.0142 24.1101 9.99171 24.0484 9.96927C24.0159 9.97831 23.9834 9.98759 23.951 9.99671C24.0438 10.0619 24.1319 10.1285 24.2321 10.1916C24.2678 10.2141 24.3777 10.2293 24.3756 10.2461C24.3701 10.2895 24.3529 10.3506 24.2844 10.3716C23.9908 10.4611 23.9522 10.4939 24.0524 10.6532C24.0287 10.6691 24.0132 10.6775 23.9651 10.6847C23.693 10.7278 23.4524 10.7715 23.1942 10.8187C23.3236 10.8444 23.4529 10.8702 23.5823 10.8959C23.5813 10.8963 23.5567 10.9061 23.5114 10.9004C23.2842 10.9159 23.1033 10.9372 22.9223 10.9585C22.8858 10.9605 22.8492 10.9625 22.7856 10.9477C22.6617 10.9052 22.566 10.8612 22.4679 10.8601C22.4039 10.8594 22.3365 10.9216 22.2503 10.9598C22.2171 10.9747 22.2041 10.985 22.191 10.9956C21.9687 11.003 21.7463 11.0104 21.475 11.0106C21.3881 11.0105 21.3012 11.0156 21.2148 11.0258C21.1579 11.0276 21.101 11.0294 20.9886 11.0263C20.8643 11.0343 20.7955 11.0473 20.7267 11.0601C20.5985 11.067 20.47 11.0701 20.3416 11.0693C19.5707 11.0637 18.8689 11.0621 18.1673 11.066C18.0441 11.0666 17.9214 11.0897 17.7986 11.1026C17.1189 11.1089 16.4392 11.1151 15.6932 11.1159ZM20.0096 8.72272C20.0045 8.71587 19.9994 8.70902 19.9943 8.70216C19.4163 8.70216 18.8382 8.70216 18.2602 8.70216C18.2618 8.71604 18.2633 8.72993 18.2649 8.74381C18.6715 8.74381 19.078 8.74378 19.5542 8.74513C19.706 8.73766 19.8578 8.73019 20.0096 8.72272ZM11.2053 8.84907C11.2717 8.84184 11.338 8.83486 11.4043 8.82772C11.4006 8.81822 11.3969 8.80872 11.3932 8.79922C10.8915 8.79922 10.3898 8.79922 9.88804 8.79922C9.88693 8.81589 9.88583 8.83257 9.88472 8.84925C10.3011 8.84925 10.7175 8.84934 11.2053 8.84907ZM7.65264 8.96977C7.74944 8.9443 7.84626 8.91877 7.88491 8.88877C7.7885 8.89439 7.69209 8.90001 7.59568 8.90563C7.61467 8.92701 7.63366 8.94839 7.65264 8.96977ZM8.99563 8.89345C8.8555 8.89345 8.71537 8.89345 8.57523 8.89345C8.57639 8.90927 8.57755 8.9251 8.57872 8.94092C8.69754 8.94629 8.81643 8.95011 8.93536 8.95239C8.95544 8.93274 8.97554 8.9131 8.99563 8.89345ZM24.1091 9.58828C24.1218 9.56056 24.1304 9.53095 24.1344 9.50049C24.1026 9.48676 24.0707 9.47302 24.0389 9.45929C24.0327 9.50246 24.0265 9.54564 24.0203 9.58881C24.0499 9.58864 24.0795 9.58846 24.1091 9.58828Z" fill="#F5E4C7"></path></svg>