<svg width="43" height="41" viewBox="0 0 43 41" fill="none" xmlns="http://www.w3.org/2000/svg" class="inline-block h-[1em] w-auto align-baseline" style="translate: none; rotate: none; scale: none; transform: translate(0px, 100px) rotate(-6.905deg) scale(0.5, 1.5); opacity: 0;"><title><div class="word" aria-hidden="true" style="position: relative; display: inline-block; translate: none; rotate: none; scale: none; transform: translate(0px, 100px) rotate(-22.6853deg) scale(0.5, 1.5); opacity: 0;"><div class="char" aria-hidden="true" style="position: relative; display: inline-block;">s</div><div class="char" aria-hidden="true" style="position: relative; display: inline-block;">p</div><div class="char" aria-hidden="true" style="position: relative; display: inline-block;">l</div><div class="char" aria-hidden="true" style="position: relative; display: inline-block;">a</div><div class="char" aria-hidden="true" style="position: relative; display: inline-block;">s</div><div class="char" aria-hidden="true" style="position: relative; display: inline-block;">h</div></div></title><path d="M16.2679 3.9734C15.3748 2.08242 15.4598 0.828613 16.2679 0.17088C20.0103 -1.12403 18.9684 5.30943 19.0747 7.05653C19.181 8.80364 20.5419 8.10479 20.7971 7.57038C21.0523 7.03598 21.6689 6.91265 22.4132 5.82328C23.1574 4.73391 22.9022 1.81521 25.0074 2.14408C27.1125 2.47295 26.5384 8.04313 27.5165 8.43366C28.4947 8.82419 30.1533 6.50157 30.6211 7.34429C31.0889 8.18701 29.324 11.4757 30.6211 11.8251C31.9182 12.1745 33.917 9.95467 35.9371 6.50157C37.9572 3.04847 41.0404 4.83668 40.8703 6.37824C40.7002 7.91981 36.7451 10.4274 35.0865 11.4757C33.4279 12.5239 32.3435 14.1066 33.917 15.2782C35.4905 16.4498 40.3175 14.2505 40.6152 16.1415C40.9129 18.0325 36.2135 18.5463 36.2135 20.4167C36.2135 22.2872 38.4888 22.8832 41.0404 22.8421C43.5921 22.801 43.2732 24.9592 42.21 25.432C41.3493 25.8147 38.3186 24.8153 37.4894 25.2059C36.6601 25.5964 36.0221 27.3641 37.4894 28.3712C38.9566 29.3784 40.2324 30.4677 39.637 31.8654C39.0416 33.2631 36.9152 34.2086 35.448 32.2765C33.9808 30.3444 32.6412 30.0156 31.0464 30.18C29.4516 30.3444 28.3246 29.9539 28.9412 32.6054C29.5579 35.2569 31.3015 35.6474 31.578 38.2783C31.8544 40.9093 29.5579 40.9915 28.197 39.4294C26.8361 37.8672 28.5159 33.2426 26.7085 33.2426C25.8356 33.2426 25.1775 36.2229 24.1994 36.0996C23.2212 35.9763 23.3275 33.0987 21.9454 32.9137C20.5632 32.7287 20.4781 34.6814 20.1592 36.0996C19.8402 37.5178 19.5425 40.231 18.9471 40.7037C18.3517 41.1765 15.8213 41.5259 17.3736 38.0933C18.9259 34.6608 17.2885 32.667 16.3104 32.6054C15.3323 32.5437 13.78 32.7081 12.4191 34.9074C11.0582 37.1067 9.56972 36.9629 8.82547 36.4696C8.08123 35.9763 8.37893 34.2908 10.2289 32.9137C12.0789 31.5366 12.7381 28.3507 11.6111 27.7957C10.4841 27.2407 7.337 28.5151 7.08183 26.8913C6.82666 25.2675 9.71856 24.7537 9.56972 23.3149C9.42087 21.8761 6.84792 21.465 4.12613 21.7528C1.40434 22.0405 -0.0416161 22.1844 0.000911935 20.3551C0.0434399 18.5258 3.10546 19.0396 4.25371 19.759C5.40197 20.4784 10.2927 20.8073 10.2289 19.759C10.1651 18.7108 6.63528 17.7241 6.63528 16.3881C6.63528 15.0521 7.5071 14.4766 9.31455 14.9082C11.122 15.3399 12.249 15.011 11.93 13.3256C11.6111 11.6401 9.63351 10.5302 6.63528 8.43366C3.63706 6.33713 4.72152 4.26116 6.93298 3.82952C9.14444 3.39789 11.9725 9.95467 13.0783 10.078C14.184 10.2013 14.2478 9.1325 15.6938 8.43366C17.1397 7.73482 17.161 5.86439 16.2679 3.9734Z" fill="#DA1F27"></path></svg>