<svg width="132" height="55" viewBox="0 0 132 55" fill="none" xmlns="http://www.w3.org/2000/svg" class="w-full h-full"><title>Weapon</title><path d="M130.646 52.5133C115.515 53.6813 101.169 49.7666 88.1777 42.1967C76.5616 35.4271 66.4302 26.5595 55.8185 18.4057C45.2068 10.2519 33.3286 1.77363 19.8347 0.151521C11.996 -0.800119 -1.51973 2.63876 0.139715 13.0852C1.03494 18.7301 7.47621 20.5901 12.3672 21.412C20.2933 22.753 28.8307 22.1906 36.5602 20.136C38.5035 19.6169 37.9358 17.4757 35.9707 17.9948C29.2892 19.7683 22.04 20.2657 15.1839 19.4006C10.8606 18.8599 4.332 17.6487 3.37127 12.5661C2.65072 8.82442 5.18356 5.36391 8.43695 3.72017C14.376 0.735482 21.8872 2.53062 27.7608 4.71507C39.0275 8.93256 48.744 16.4592 58.0675 23.8344C67.391 31.2096 77.2603 39.3634 88.0904 45.3112C101.126 52.4701 115.449 55.9306 130.363 54.7843C132.131 54.6545 132.808 52.3403 130.646 52.4917V52.5133Z" fill="currentColor"></path><path d="M1.35355 52.5133C16.4851 53.6813 30.8306 49.7666 43.8223 42.1967C55.4384 35.4271 65.5698 26.5595 76.1815 18.4057C86.7932 10.2519 98.6714 1.77363 112.165 0.151521C120.004 -0.800119 133.52 2.63876 131.86 13.0852C130.965 18.7301 124.524 20.5901 119.633 21.412C111.707 22.753 103.169 22.1906 95.4398 20.136C93.4965 19.6169 94.0642 17.4757 96.0293 17.9948C102.711 19.7683 109.96 20.2657 116.816 19.4006C121.139 18.8599 127.668 17.6487 128.629 12.5661C129.349 8.82442 126.816 5.36391 123.563 3.72017C117.624 0.735482 110.113 2.53062 104.239 4.71507C92.9725 8.93256 83.256 16.4592 73.9325 23.8344C64.609 31.2096 54.7397 39.3634 43.9096 45.3112C30.8742 52.4701 16.5506 55.9306 1.63741 54.7843C-0.13121 54.6545 -0.80809 52.3403 1.35355 52.4917V52.5133Z" fill="currentColor"></path></svg>